<?xml version="1.0" encoding="UTF-8"?>
<svg version="1.1" xmlns="http://www.w3.org/2000/svg" width="1254" height="1254">
<path d="M0 0 C413.82 0 827.64 0 1254 0 C1254 413.82 1254 827.64 1254 1254 C840.18 1254 426.36 1254 0 1254 C0 840.18 0 426.36 0 0 Z " fill="#000000" transform="translate(0,0)"/>
<path d="M0 0 C3.40965122 1.13655041 3.90044655 1.85851694 5.93359375 4.69140625 C6.49369141 5.46291016 7.05378906 6.23441406 7.63085938 7.02929688 C8.52514648 8.28323242 8.52514648 8.28323242 9.4375 9.5625 C10.70638523 11.3142702 11.97592653 13.06556537 13.24609375 14.81640625 C13.88015137 15.69441895 14.51420898 16.57243164 15.16748047 17.47705078 C17.7377142 21.01565928 20.3645419 24.50985904 23 28 C29.13071338 36.14700507 35.17421415 44.35728598 41.21337891 52.57226562 C42.98714006 54.98252539 44.76443644 57.39013424 46.54296875 59.796875 C53.88817733 69.73971726 61.16511532 79.72878552 68.38671875 89.76171875 C70.01489256 92.02066207 71.64737625 94.27642661 73.28125 96.53125 C79.60653759 105.26330575 85.87770889 114.03037272 92.078125 122.8515625 C93.9108644 125.45858011 95.75325841 128.05801761 97.609375 130.6484375 C104.78598734 140.69095339 111.71196621 150.90021586 118.625 161.125 C119.11223541 161.84557587 119.59947083 162.56615173 120.10147095 163.30856323 C131.48135487 180.14675002 142.70597239 197.08382531 153.875 214.0625 C155.69240483 216.82459785 157.50993983 219.5866099 159.32766724 222.34849548 C160.44756553 224.05015078 161.56726753 225.75193528 162.68673706 227.45387268 C165.44453561 231.64491621 168.21166633 235.82920465 171 240 C169.50553115 243.68690392 167.47761573 245.4957133 164.375 247.9375 C163.39015625 248.72253906 162.4053125 249.50757813 161.390625 250.31640625 C160.84857422 250.74453613 160.30652344 251.17266602 159.74804688 251.61376953 C156.51904444 254.17442258 153.32372763 256.77670307 150.125 259.375 C149.4434082 259.92752441 148.76181641 260.48004883 148.05957031 261.04931641 C143.15786497 265.03180674 138.32414052 269.08730623 133.51660156 273.18261719 C129.54938879 276.55511974 125.51192258 279.82593824 121.43359375 283.0625 C113.29271014 289.54384554 105.30340954 296.21821446 97.27270508 302.83520508 C90.6900113 308.2581924 84.08987999 313.65950796 77.484375 319.0546875 C71.06603561 324.3008152 64.66452541 329.5670681 58.26806641 334.83984375 C54.27110491 338.13366085 50.26613121 341.41705397 46.25 344.6875 C41.73235797 348.37690766 37.27956846 352.13818193 32.83496094 355.91479492 C28.53435886 359.56342369 24.17622308 363.13670424 19.80078125 366.6953125 C16.73224213 369.22033075 13.70960188 371.79484769 10.6875 374.375 C6.25149077 378.15791912 1.7340912 381.80546102 -2.875 385.375 C-7.89255958 389.26411525 -12.72978824 393.31158151 -17.5 397.5 C-22.82591515 402.17634617 -28.26754847 406.63538056 -33.86889648 410.9765625 C-39.5104962 415.36172912 -44.95063761 419.96575049 -50.37792969 424.61181641 C-53.14193195 426.9772765 -55.91326752 429.33405058 -58.6875 431.6875 C-59.22793945 432.14608398 -59.76837891 432.60466797 -60.32519531 433.07714844 C-64.38774851 436.5116502 -68.52918491 439.8373576 -72.69921875 443.140625 C-76.22462817 445.98968253 -79.62103656 448.97969749 -83 452 C-81.67216283 455.02959848 -80.3422999 456.825697 -77.76171875 458.8828125 C-77.11291748 459.40520508 -76.46411621 459.92759766 -75.7956543 460.46582031 C-75.09996338 461.01334961 -74.40427246 461.56087891 -73.6875 462.125 C-72.97053955 462.69831055 -72.2535791 463.27162109 -71.51489258 463.86230469 C-66.58152272 467.79325054 -61.59317409 471.65183025 -56.578125 475.4777832 C-52.30685877 478.74136363 -48.13896962 482.11556346 -43.9921875 485.53515625 C-40.44562568 488.45667128 -36.88017952 491.35434281 -33.3125 494.25 C-31.94138913 495.36326017 -30.57029558 496.47654166 -29.19921875 497.58984375 C-28.50876465 498.1504248 -27.81831055 498.71100586 -27.10693359 499.28857422 C-24.99363734 501.00516828 -22.88142231 502.72308379 -20.76953125 504.44140625 C-12.40643733 511.24755137 -12.40643733 511.24755137 -4 518 C0.22767187 521.37223993 4.42879127 524.77626566 8.625 528.1875 C9.30675293 528.74163574 9.98850586 529.29577148 10.69091797 529.86669922 C14.16087258 532.68821569 17.62863641 535.51238422 21.09375 538.33984375 C27.33362003 543.42703028 33.58898234 548.48631165 39.9375 553.4375 C46.03346749 558.19256539 52.0047539 563.09029472 57.96240234 568.01708984 C62.39049312 571.67841165 66.84499062 575.30064323 71.34375 578.875 C75.63709193 582.30967354 79.89155546 585.79222038 84.15258789 589.2668457 C88.57515364 592.86537693 93.04012332 596.39591385 97.59375 599.828125 C98.0578125 600.21484375 98.521875 600.6015625 99 601 C99 601.33 99 601.66 99 602 C10.56 602 -77.88 602 -169 602 C-169 647.21 -169 692.42 -169 739 C-209.59 739 -250.18 739 -292 739 C-292.66 735.04 -293.32 731.08 -294 727 C-294.53276103 724.72975929 -295.10290107 722.46744308 -295.734375 720.22265625 C-296.05825195 719.06008301 -296.38212891 717.89750977 -296.71582031 716.69970703 C-297.05709961 715.49942871 -297.39837891 714.29915039 -297.75 713.0625 C-298.10416992 711.79776855 -298.45833984 710.53303711 -298.82324219 709.22998047 C-301.17873742 700.82443913 -303.5786263 692.43117108 -305.9934082 684.04248047 C-307.36425134 679.27102714 -308.67973658 674.49035189 -309.9375 669.6875 C-311.63497186 663.23569823 -313.492832 656.83768162 -315.375 650.4375 C-320.49103427 633.02762988 -325.16584392 615.49906596 -329.8046875 597.95703125 C-330.05476563 597.02246094 -330.30484375 596.08789062 -330.5625 595.125 C-330.77003906 594.34382812 -330.97757812 593.56265625 -331.19140625 592.7578125 C-331.88609718 590.38848016 -332.64933124 588.06687962 -333.4453125 585.73046875 C-334.9481952 581.26201455 -336.15968723 576.75668834 -337.3125 572.1875 C-339.32058836 564.37211062 -341.55047216 556.64400191 -343.94458008 548.93823242 C-345.35364984 544.35625902 -346.51780055 539.79118504 -347.51928711 535.10400391 C-348.22680502 532.00731048 -349.20059828 529.01796566 -350.1875 526 C-354.67177926 511.99327228 -358.64446227 497.78909697 -362.125 483.5 C-363.55985309 477.62739451 -365.19646128 471.83741216 -366.9362793 466.05004883 C-368.90011848 459.46332778 -370.67144466 452.82960281 -372.4375 446.1875 C-374.80594179 437.28891662 -377.31687886 428.45299507 -380.00708008 419.64672852 C-381.60338121 414.39848908 -383.02088915 409.13518474 -384.3046875 403.80078125 C-385.3491296 399.59367461 -386.5681159 395.44076378 -387.7734375 391.27734375 C-388.73582318 387.94156191 -389.67192771 384.59896055 -390.6015625 381.25390625 C-393.31376044 371.49546058 -396.04263162 361.74981532 -399 352.0625 C-401.13685111 345.0336416 -403.11285654 337.9748019 -405 330.875 C-408.2678688 318.59747884 -411.65826127 306.35531241 -415.07666016 294.11895752 C-415.68150613 291.95301879 -416.28538365 289.78680934 -416.88818359 287.62030029 C-420.32901704 275.25835122 -423.86897082 262.93724383 -427.66394043 250.67878723 C-429.69076825 244.11622371 -431.50831379 237.52560598 -433.17578125 230.86328125 C-433.85958908 228.10817517 -433.85958908 228.10817517 -434.97338867 226.18969727 C-436.22660024 223.51667596 -436.698319 221.00363442 -437.25 218.1015625 C-439.3204439 208.05366703 -442.19767592 198.2387761 -445 188.375 C-446.0648884 184.61265063 -447.12718791 180.84957905 -448.1875 177.0859375 C-448.43814209 176.19710876 -448.68878418 175.30828003 -448.94702148 174.39251709 C-450.75340751 167.95624566 -452.45398806 161.50443838 -454 155 C-446.69207307 159.05410932 -439.57400523 163.15278973 -432.78515625 168.04296875 C-429.29067125 170.49842034 -425.7158075 172.81354838 -422.125 175.125 C-421.40465576 175.5888208 -420.68431152 176.0526416 -419.94213867 176.53051758 C-418.42152929 177.50917338 -416.90077311 178.48760112 -415.37988281 179.46582031 C-411.24508135 182.13129963 -407.12321059 184.81664073 -403 187.5 C-386.78569809 198.05123729 -386.78569809 198.05123729 -370.5078125 208.50390625 C-355.09634787 218.3291257 -339.80205968 228.32247695 -324.53219604 238.36581421 C-316.76013567 243.47581277 -308.96238146 248.54601711 -301.15576172 253.60302734 C-299.03115914 254.97980831 -296.90802889 256.35883475 -294.78515625 257.73828125 C-286.94635857 262.82697812 -279.07714099 267.86548628 -271.1875 272.875 C-261.54358707 278.99902282 -251.95674626 285.20689493 -242.38720703 291.44628906 C-237.78367755 294.44249091 -233.16875688 297.42112476 -228.5534668 300.39916992 C-227.90933838 300.81529541 -227.26520996 301.2314209 -226.6015625 301.66015625 C-226.04807129 302.01730713 -225.49458008 302.37445801 -224.92431641 302.74243164 C-224.28929199 303.1574292 -223.65426758 303.57242676 -223 304 C-221.98472638 304.49901793 -220.96945276 304.99803587 -219.92341328 305.51217556 C-216.57441206 308.3621753 -216.57441206 308.3621753 -216.27123547 312.02222538 C-216.25036764 313.70230323 -216.26289773 315.38298566 -216.30107117 317.0627594 C-216.29821116 317.98946581 -216.29535115 318.91617223 -216.29240447 319.87096065 C-216.28987992 322.98447445 -216.33011997 326.09598873 -216.36987305 329.20922852 C-216.37643541 331.43824137 -216.38023404 333.66726384 -216.38146973 335.89628601 C-216.38940087 340.70155648 -216.41562816 345.50626249 -216.45551109 350.31137276 C-216.51714791 357.91369202 -216.53013211 365.51560958 -216.53486633 373.1181488 C-216.5455895 383.78206627 -216.570799 394.44579481 -216.61450195 405.10961914 C-216.61726514 405.78633189 -216.62002833 406.46304463 -216.62287525 407.16026383 C-216.65411643 414.7021064 -216.69023103 422.24391298 -216.73181152 429.78570557 C-216.74679969 432.51639781 -216.76174426 435.24709029 -216.77661133 437.9777832 C-216.7802893 438.65154787 -216.78396728 439.32531253 -216.7877567 440.0194943 C-216.84823287 451.27573677 -216.87315385 462.53176639 -216.8718074 473.78819412 C-216.87306801 481.34087483 -216.91575094 488.89182526 -216.98969495 496.4441272 C-217.02651132 501.15271862 -217.025708 505.86076075 -217.01461029 510.56945992 C-217.01704017 512.74670835 -217.03484049 514.92400456 -217.06947517 517.10097885 C-217.5554205 530.77479868 -217.5554205 530.77479868 -211.64265442 542.59043884 C-210.1135923 544.07951727 -208.56734013 545.55126592 -207 547 C-205.85875557 548.52618404 -204.75054871 550.07850913 -203.69921875 551.66796875 C-203.20309082 552.40789063 -202.70696289 553.1478125 -202.19580078 553.91015625 C-201.69806152 554.66167969 -201.20032227 555.41320312 -200.6875 556.1875 C-196.0290018 563.11799895 -191.17836646 569.84273634 -186.11376953 576.48071289 C-182.63184646 581.07434838 -179.49095442 585.80376157 -176.46875 590.71484375 C-174.53953543 593.7164143 -172.37245802 596.33997131 -170 599 C-168.97480675 595.62074432 -168.88311137 592.5549169 -168.89764786 589.03233242 C-168.9001905 587.80296347 -168.90273314 586.57359452 -168.90535283 585.30697197 C-168.91325902 583.94052306 -168.92123052 582.57407453 -168.92926025 581.20762634 C-168.93400151 579.7575374 -168.93826526 578.30744683 -168.9420917 576.85735518 C-168.9513335 573.70088206 -168.96368516 570.54444146 -168.97837639 567.38798904 C-169.00215448 562.25170937 -169.01886497 557.11542155 -169.03425598 551.97911072 C-169.03970327 550.18219027 -169.04516177 548.38526985 -169.05063105 546.58834946 C-169.05338472 545.68232224 -169.0561384 544.77629502 -169.05897552 543.84281243 C-169.06780885 541.02267697 -169.07732151 538.2025445 -169.08700705 535.38241184 C-169.13357246 521.6493578 -169.15875094 507.91636821 -169.17108154 494.1832428 C-169.17200362 493.18974465 -169.1729257 492.1962465 -169.17387572 491.17264234 C-169.18231225 481.94424304 -169.18937669 472.71584285 -169.19573832 463.4874419 C-169.20018973 457.15723588 -169.20543513 450.82703092 -169.21142578 444.49682617 C-169.2124107 443.44539445 -169.21339563 442.39396272 -169.21441039 441.31066943 C-169.23164271 424.30367226 -169.29180361 407.29707424 -169.36704543 390.29024666 C-169.44329275 372.81430143 -169.46979516 355.33876988 -169.45151305 337.86266619 C-169.44186447 327.09356985 -169.47089909 316.32602574 -169.55046514 305.55721284 C-169.60144335 298.16264847 -169.60411528 290.76902332 -169.56983492 283.37436729 C-169.55151086 279.11587251 -169.55357573 274.86013911 -169.61358833 270.60196686 C-169.85527898 252.41193177 -169.56112443 238.02354523 -156.62632608 223.854972 C-154.00510149 220.86522826 -151.8650285 217.5690368 -149.6875 214.25 C-145.19534832 207.70918509 -140.66081155 201.198083 -136.125 194.6875 C-129.52953155 185.21973615 -122.99478147 175.71234068 -116.49072266 166.18164062 C-113.22773562 161.4063291 -109.94681644 156.64333331 -106.66796875 151.87890625 C-104.89689507 149.3053249 -103.12881789 146.72972657 -101.36328125 144.15234375 C-93.38777609 132.51609489 -85.29061734 120.96624919 -77.18847656 109.41796875 C-71.26057781 100.96694598 -65.33540421 92.51525601 -59.5 84 C-53.66343162 75.48304518 -47.73652921 67.03011787 -41.80712891 58.57763672 C-39.41560571 55.16643679 -37.02851519 51.75214622 -34.64135742 48.33789062 C-32.31764974 45.01564704 -29.99111483 41.69538971 -27.6640625 38.37548828 C-26.57978028 36.82764995 -25.49640155 35.2791782 -24.4140625 33.72998047 C-17.9090952 24.42036515 -11.25694319 15.24807266 -4.3984375 6.1953125 C-2.87806438 4.16979913 -1.404853 2.1072795 0 0 Z " fill="#7C2EDB" transform="translate(629,177)"/>
<path d="M0 0 C1.34647583 2.69295165 0.70883737 3.76967512 -0.08203125 6.65234375 C-0.48276855 8.12997192 -0.48276855 8.12997192 -0.89160156 9.63745117 C-1.34744629 11.27097534 -1.34744629 11.27097534 -1.8125 12.9375 C-2.28574707 14.66286987 -2.28574707 14.66286987 -2.76855469 16.4230957 C-6.19630576 28.85239769 -9.76075172 41.24354705 -13.31640625 53.63671875 C-16.12298537 63.41988392 -18.91580652 73.20689016 -21.6875 83 C-22.0361058 84.23147263 -22.0361058 84.23147263 -22.39175415 85.48782349 C-25.65513572 97.0348331 -28.79963447 108.602906 -31.71948242 120.2421875 C-33.31943809 126.58121918 -35.15027553 132.81379185 -37.10083008 139.05371094 C-38.16396777 142.53726936 -39.04307219 146.01690292 -39.875 149.5625 C-41.32492228 155.56586693 -43.00322602 161.47055721 -44.8125 167.375 C-47.51192901 176.20246783 -49.94620607 185.08690856 -52.32128906 194.0065918 C-54.34150186 201.58460738 -56.42952439 209.14050096 -58.5625 216.6875 C-61.10671009 225.70434466 -63.52567729 234.74694577 -65.86914062 243.81787109 C-67.94629424 251.84387017 -70.14223608 259.83240433 -72.38671875 267.81298828 C-73.23938441 270.85366461 -74.08093911 273.89738498 -74.92333984 276.94091797 C-76.56342781 282.86603333 -78.22231353 288.783573 -79.9375 294.6875 C-81.70808528 300.84885118 -83.32999581 307.04427439 -84.9375 313.25 C-87.93921327 324.83366686 -91.08888311 336.36773447 -94.3984375 347.8671875 C-94.89072066 349.57809748 -95.38290631 351.28903552 -95.875 353 C-96.12161377 353.857146 -96.36822754 354.71429199 -96.62231445 355.59741211 C-99.03156801 364.01941154 -101.30366131 372.47720278 -103.55224609 380.94335938 C-105.0056549 386.39640636 -106.52953509 391.81405818 -108.17114258 397.21313477 C-110.03819397 403.49071699 -111.7530432 409.81314588 -113.5 416.125 C-113.93574921 417.69646342 -114.37154118 419.26791498 -114.80737305 420.83935547 C-118.61053314 434.56067184 -122.38746115 448.28922713 -126.15625 462.02001953 C-127.4355512 466.68055025 -128.71705975 471.3404698 -130 476 C-130.33842422 477.23015839 -130.33842422 477.23015839 -130.6836853 478.48516846 C-131.36061531 480.94363304 -132.03941558 483.40157385 -132.71875 485.859375 C-132.92309158 486.60220734 -133.12743317 487.34503967 -133.33796692 488.11038208 C-134.55744503 492.51320782 -135.89788446 496.84628591 -137.39331055 501.16186523 C-138.20700871 503.62719057 -138.79772111 506.1414044 -139.41723633 508.66113281 C-143.70056368 525.85186429 -148.63666201 542.88226324 -153.53515625 559.90551758 C-153.94538003 561.33152354 -154.35553797 562.75754845 -154.765625 564.18359375 C-154.96063599 564.86172623 -155.15564697 565.5398587 -155.35656738 566.23854065 C-156.95513352 571.81212647 -158.49780033 577.39973365 -160 583 C-164.46428571 578.75 -164.46428571 578.75 -165 575 C-165.66 575 -166.32 575 -167 575 C-169.97289525 570.58312705 -172.58742823 565.9835349 -175.25 561.375 C-182.40500464 549.06531459 -190.43186744 537.29686275 -198.34814453 525.46972656 C-201.27912057 521.08755783 -204.20144285 516.69962008 -207.125 512.3125 C-208.30725446 510.5390377 -209.48954541 508.76559972 -210.671875 506.9921875 C-245.2578125 455.11328125 -245.2578125 455.11328125 -246.98266602 452.5246582 C-248.16640019 450.74995631 -249.35180061 448.97636475 -250.53881836 447.20385742 C-253.60613216 442.61882566 -256.64135018 438.01750013 -259.62109375 433.375 C-266.46963715 422.76899739 -273.1337124 413.74378265 -282.74414349 405.50474262 C-287.5783425 401.3325741 -292.15702486 396.97591051 -296.65356445 392.4440918 C-297.37167801 391.72451797 -298.08979156 391.00494415 -298.82966614 390.26356506 C-300.37378199 388.71567068 -301.91674259 387.16662313 -303.45864296 385.61652184 C-305.89826747 383.16404827 -308.34107729 380.71478735 -310.78471375 378.26631165 C-315.96346442 373.07618397 -321.13825751 367.88212155 -326.3125 362.6875 C-332.32765649 356.64873996 -338.34442555 350.6116051 -344.36540794 344.57865334 C-346.77326837 342.16430576 -349.17810159 339.74697019 -351.58283997 337.32951355 C-353.05288199 335.85584051 -354.52306375 334.38230684 -355.9934082 332.90893555 C-356.9963089 331.89828537 -356.9963089 331.89828537 -358.01947021 330.86721802 C-358.63468033 330.25193741 -359.24989044 329.6366568 -359.88374329 329.00273132 C-360.68256156 328.20058213 -360.68256156 328.20058213 -361.49751759 327.3822279 C-363.15913291 325.78189177 -363.15913291 325.78189177 -366 324 C-366 323.34 -366 322.68 -366 322 C-366.56847656 321.76925781 -367.13695312 321.53851562 -367.72265625 321.30078125 C-370.57986975 319.66878795 -372.28719372 317.67320933 -374.4375 315.1875 C-377.5120295 311.65312783 -380.6628991 308.28802589 -384 305 C-385.13756371 303.86412683 -386.27422236 302.72734682 -387.41015625 301.58984375 C-388.30637695 300.69362305 -388.30637695 300.69362305 -389.22070312 299.77929688 C-393.48046875 295.51953125 -397.74023438 291.25976562 -402 287 C-400.88024077 283.64072231 -400.26397398 283.19085244 -397.484375 281.20703125 C-396.73833008 280.66731689 -395.99228516 280.12760254 -395.22363281 279.5715332 C-394.40733398 278.99105225 -393.59103516 278.41057129 -392.75 277.8125 C-391.00921898 276.55373799 -389.26968059 275.29325612 -387.53125 274.03125 C-386.62246094 273.37253906 -385.71367188 272.71382812 -384.77734375 272.03515625 C-380.21755948 268.69387973 -375.73534673 265.25268948 -371.25 261.8125 C-363.55964985 255.92905361 -355.80933015 250.14321855 -347.98095703 244.4453125 C-344.08239128 241.60090663 -340.19788274 238.73737277 -336.3125 235.875 C-335.49579834 235.27357178 -334.67909668 234.67214355 -333.83764648 234.05249023 C-329.52033526 230.86976997 -325.21843129 227.6689509 -320.9375 224.4375 C-316.08940455 220.78621473 -311.17709334 217.23082275 -306.25 213.6875 C-300.47755101 209.53504922 -294.74175568 205.34158699 -289.0625 201.0625 C-274.91405112 190.40261301 -260.61073304 179.95807637 -246.23388672 169.60888672 C-242.48640216 166.90987872 -238.74344155 164.20461116 -235 161.5 C-233.50002146 160.41663696 -232.00002146 159.33330362 -230.5 158.25 C-229.38625 157.445625 -229.38625 157.445625 -228.25 156.625 C-226 155 -223.75 153.375 -221.5 151.75 C-220.75766113 151.21383057 -220.01532227 150.67766113 -219.25048828 150.12524414 C-217.74899797 149.04090687 -216.24737013 147.95676001 -214.74560547 146.87280273 C-211.01726152 144.18136658 -207.29129135 141.4867676 -203.5703125 138.78515625 C-194.07551804 131.89780012 -184.50736931 125.12440552 -174.88671875 118.4140625 C-170.32720189 115.23308777 -165.78688704 112.0256269 -161.25 108.8125 C-155.33909616 104.63104993 -149.39480823 100.50235089 -143.4206543 96.41186523 C-138.58378011 93.09733294 -133.76894669 89.75228362 -128.96044922 86.39672852 C-116.40960439 77.64074317 -103.7843288 68.99950729 -91.10821533 60.42608643 C-88.74480936 58.82737821 -86.38193498 57.22788572 -84.01904297 55.62841797 C-79.35498046 52.47184 -74.68914827 49.31789004 -70.02233887 46.16537476 C-68.16707986 44.91185862 -66.31216692 43.6578301 -64.4576416 42.40322876 C-52.46686271 34.2932415 -40.40099813 26.31329277 -28.24478149 18.45355225 C-24.94339337 16.31582074 -21.65061025 14.16503759 -18.359375 12.01171875 C-17.79712723 11.6440036 -17.23487946 11.27628845 -16.65559387 10.89743042 C-15.02023962 9.82769251 -13.38511834 8.75759848 -11.75 7.6875 C-10.58855907 6.92770777 -9.4271007 6.1679422 -8.265625 5.40820312 C-5.51024753 3.60572703 -2.75503741 1.80299581 0 0 Z " fill="#913BEF" transform="translate(1082,332)"/>
<path d="M0 0 C3.40965122 1.13655041 3.90044655 1.85851694 5.93359375 4.69140625 C6.49369141 5.46291016 7.05378906 6.23441406 7.63085938 7.02929688 C8.52514648 8.28323242 8.52514648 8.28323242 9.4375 9.5625 C10.70638523 11.3142702 11.97592653 13.06556537 13.24609375 14.81640625 C14.19718018 16.13342529 14.19718018 16.13342529 15.16748047 17.47705078 C17.7377142 21.01565928 20.3645419 24.50985904 23 28 C29.13071338 36.14700507 35.17421415 44.35728598 41.21337891 52.57226562 C42.98714006 54.98252539 44.76443644 57.39013424 46.54296875 59.796875 C53.88817733 69.73971726 61.16511532 79.72878552 68.38671875 89.76171875 C70.01489256 92.02066207 71.64737625 94.27642661 73.28125 96.53125 C79.60653759 105.26330575 85.87770889 114.03037272 92.078125 122.8515625 C93.9108644 125.45858011 95.75325841 128.05801761 97.609375 130.6484375 C104.78598734 140.69095339 111.71196621 150.90021586 118.625 161.125 C119.11223541 161.84557587 119.59947083 162.56615173 120.10147095 163.30856323 C131.48135487 180.14675002 142.70597239 197.08382531 153.875 214.0625 C155.69240483 216.82459785 157.50993983 219.5866099 159.32766724 222.34849548 C160.44756553 224.05015078 161.56726753 225.75193528 162.68673706 227.45387268 C165.44453561 231.64491621 168.21166633 235.82920465 171 240 C169.50553115 243.68690392 167.47761573 245.4957133 164.375 247.9375 C163.39015625 248.72253906 162.4053125 249.50757813 161.390625 250.31640625 C160.84857422 250.74453613 160.30652344 251.17266602 159.74804688 251.61376953 C156.51904444 254.17442258 153.32372763 256.77670307 150.125 259.375 C149.4434082 259.92752441 148.76181641 260.48004883 148.05957031 261.04931641 C143.15786497 265.03180674 138.32414052 269.08730623 133.51660156 273.18261719 C129.54938879 276.55511974 125.51192258 279.82593824 121.43359375 283.0625 C113.29271014 289.54384554 105.30340954 296.21821446 97.27270508 302.83520508 C90.6900113 308.2581924 84.08987999 313.65950796 77.484375 319.0546875 C71.06603561 324.3008152 64.66452541 329.5670681 58.26806641 334.83984375 C54.27110491 338.13366085 50.26613121 341.41705397 46.25 344.6875 C41.73235797 348.37690766 37.27956846 352.13818193 32.83496094 355.91479492 C28.53435886 359.56342369 24.17622308 363.13670424 19.80078125 366.6953125 C16.73224213 369.22033075 13.70960188 371.79484769 10.6875 374.375 C6.25149077 378.15791912 1.7340912 381.80546102 -2.875 385.375 C-7.89255958 389.26411525 -12.72978824 393.31158151 -17.5 397.5 C-22.82591515 402.17634617 -28.26754847 406.63538056 -33.86889648 410.9765625 C-39.5104962 415.36172912 -44.95063761 419.96575049 -50.37792969 424.61181641 C-57.66184241 430.84545996 -64.97275966 437.03004871 -72.48828125 442.984375 C-75.27608472 445.22155477 -78.01324203 447.51318947 -80.75 449.8125 C-85.62872153 453.89889719 -90.60068841 457.83953543 -95.63208008 461.7355957 C-98.74608435 464.16590189 -101.78419576 466.65247894 -104.75390625 469.2578125 C-105.37088379 469.79873535 -105.98786133 470.3396582 -106.62353516 470.89697266 C-107.79573904 471.93286642 -108.96130697 472.97634029 -110.11865234 474.02880859 C-112.89626943 476.48641219 -115.37192717 478.30134967 -118.82421875 479.703125 C-122.69380736 481.28332601 -122.92371006 482.48627856 -125 486 C-128.42661856 489.04515239 -131.9978443 492.03721475 -136.14453125 494.03125 C-138.59866656 495.31256696 -139.82885865 497.2782744 -141.515625 499.41796875 C-143.72270954 501.77025622 -146.32174667 503.2241561 -149.08203125 504.85546875 C-152.86754726 507.11444266 -155.65905258 509.58037241 -158.4375 513 C-161.05639367 516.06602186 -163.62334232 517.84488423 -167 520 C-167.27515358 484.63625629 -167.48636144 449.27273057 -167.61278395 413.90814025 C-167.62779098 409.72537951 -167.64332299 405.54262088 -167.65917969 401.35986328 C-167.66390128 400.11088746 -167.66390128 400.11088746 -167.66871825 398.8366798 C-167.72081939 385.38520269 -167.8153692 371.93434609 -167.92583355 358.48323609 C-168.03837472 344.66313626 -168.10477286 330.84335956 -168.12906194 317.02282035 C-168.1454619 308.50637296 -168.19709707 299.99167979 -168.2949976 291.47577296 C-168.35883069 285.62215179 -168.37751271 279.76942653 -168.36201653 273.91548325 C-168.35438814 270.54538608 -168.37210364 267.18076852 -168.4304657 263.8108139 C-168.69931254 247.47589348 -167.25468182 236.56507742 -156.53044176 223.86629844 C-154.04556226 220.83611013 -151.91330097 217.57581882 -149.75 214.3125 C-144.55249747 206.7566668 -139.29685796 199.24085005 -134.05493164 191.71582031 C-128.1530487 183.23636891 -122.31419165 174.71504074 -116.49072266 166.18164062 C-113.22773562 161.4063291 -109.94681644 156.64333331 -106.66796875 151.87890625 C-104.89689507 149.3053249 -103.12881789 146.72972657 -101.36328125 144.15234375 C-93.38777609 132.51609489 -85.29061734 120.96624919 -77.18847656 109.41796875 C-71.26057781 100.96694598 -65.33540421 92.51525601 -59.5 84 C-53.66343162 75.48304518 -47.73652921 67.03011787 -41.80712891 58.57763672 C-39.41560571 55.16643679 -37.02851519 51.75214622 -34.64135742 48.33789062 C-32.31764974 45.01564704 -29.99111483 41.69538971 -27.6640625 38.37548828 C-26.57978028 36.82764995 -25.49640155 35.2791782 -24.4140625 33.72998047 C-17.9090952 24.42036515 -11.25694319 15.24807266 -4.3984375 6.1953125 C-2.87806438 4.16979913 -1.404853 2.1072795 0 0 Z " fill="#A148F4" transform="translate(629,177)"/>
<path d="M0 0 C0.66 0 1.32 0 2 0 C0.38009842 9.76569239 -2.14179941 19.03618411 -5.09985352 28.47314453 C-7.61752472 36.57427139 -9.84622631 44.73272234 -12 52.9375 C-14.37907197 61.99680631 -16.83336076 71.0208424 -19.5 80 C-22.39470897 89.75199716 -25.04729905 99.55899761 -27.64099121 109.394104 C-29.7592748 117.42316384 -31.95073577 125.41452566 -34.3503418 133.36376953 C-35.68368957 137.81580474 -36.84582906 142.29647076 -37.9375 146.8125 C-39.37126105 152.7312289 -41.02945385 158.55231228 -42.8125 164.375 C-45.51175481 173.2025248 -47.94620405 182.08690099 -50.32128906 191.0065918 C-52.34150186 198.58460738 -54.42952439 206.14050096 -56.5625 213.6875 C-59.10671009 222.70434466 -61.52567729 231.74694577 -63.86914062 240.81787109 C-65.94629424 248.84387017 -68.14223608 256.83240433 -70.38671875 264.81298828 C-71.23938441 267.85366461 -72.08093911 270.89738498 -72.92333984 273.94091797 C-74.56342781 279.86603333 -76.22231353 285.783573 -77.9375 291.6875 C-79.70808528 297.84885118 -81.32999581 304.04427439 -82.9375 310.25 C-85.93921327 321.83366686 -89.08888311 333.36773447 -92.3984375 344.8671875 C-92.89072066 346.57809748 -93.38290631 348.28903552 -93.875 350 C-94.12161377 350.857146 -94.36822754 351.71429199 -94.62231445 352.59741211 C-97.03156801 361.01941154 -99.30366131 369.47720278 -101.55224609 377.94335938 C-103.0056549 383.39640636 -104.52953509 388.81405818 -106.17114258 394.21313477 C-108.03819397 400.49071699 -109.7530432 406.81314588 -111.5 413.125 C-111.93574921 414.69646342 -112.37154118 416.26791498 -112.80737305 417.83935547 C-116.61053314 431.56067184 -120.38746115 445.28922713 -124.15625 459.02001953 C-125.4355512 463.68055025 -126.71705975 468.3404698 -128 473 C-128.33842422 474.23015839 -128.33842422 474.23015839 -128.6836853 475.48516846 C-129.36061531 477.94363304 -130.03941558 480.40157385 -130.71875 482.859375 C-130.92309158 483.60220734 -131.12743317 484.34503967 -131.33796692 485.11038208 C-132.55744503 489.51320782 -133.89788446 493.84628591 -135.39331055 498.16186523 C-136.20700871 500.62719057 -136.79772111 503.1414044 -137.41723633 505.66113281 C-141.70056368 522.85186429 -146.63666201 539.88226324 -151.53515625 556.90551758 C-151.94538003 558.33152354 -152.35553797 559.75754845 -152.765625 561.18359375 C-152.96063599 561.86172623 -153.15564697 562.5398587 -153.35656738 563.23854065 C-154.95513352 568.81212647 -156.49780033 574.39973365 -158 580 C-162.46428571 575.75 -162.46428571 575.75 -163 572 C-163.66 572 -164.32 572 -165 572 C-167.97289525 567.58312705 -170.58742823 562.9835349 -173.25 558.375 C-180.40500464 546.06531459 -188.43186744 534.29686275 -196.34814453 522.46972656 C-199.27912057 518.08755783 -202.20144285 513.69962008 -205.125 509.3125 C-206.30725446 507.5390377 -207.48954541 505.76559972 -208.671875 503.9921875 C-220.22395833 486.6640625 -231.77604167 469.3359375 -243.328125 452.0078125 C-243.90868652 451.13761475 -244.48924805 450.26741699 -245.08740234 449.37084961 C-246.27763408 447.58420155 -247.46546783 445.79595364 -248.65087891 444.00610352 C-251.59051994 439.57404797 -254.56409378 435.1759214 -257.6328125 430.83203125 C-258.20016113 430.01710205 -258.76750977 429.20217285 -259.35205078 428.36254883 C-260.42667236 426.82193949 -261.51562093 425.291196 -262.62060547 423.7722168 C-263.09643066 423.08426025 -263.57225586 422.39630371 -264.0625 421.6875 C-264.48660156 421.09324219 -264.91070313 420.49898437 -265.34765625 419.88671875 C-266 418 -266 418 -265.2824707 415.54101562 C-264.08401776 413.16646808 -262.8306329 410.90925141 -261.41796875 408.65625 C-260.64851929 407.42177124 -260.64851929 407.42177124 -259.86352539 406.16235352 C-259.31043701 405.28377686 -258.75734863 404.4052002 -258.1875 403.5 C-257.00244935 401.60296128 -255.81755787 399.70582313 -254.6328125 397.80859375 C-254.02727539 396.84163574 -253.42173828 395.87467773 -252.79785156 394.87841797 C-250.56783305 391.30808686 -248.35945842 387.72469113 -246.15161133 384.140625 C-240.59085997 375.11903423 -234.9363892 366.16123399 -229.23071289 357.23071289 C-225.26793669 351.01886765 -221.36540756 344.77283629 -217.5 338.5 C-211.32519501 328.48227923 -205.01135005 318.55658281 -198.68017578 308.63720703 C-196.0672874 304.53601256 -193.46995855 300.42505542 -190.875 296.3125 C-190.38765381 295.54019043 -189.90030762 294.76788086 -189.39819336 293.97216797 C-188.42128403 292.42373014 -187.44447695 290.87522781 -186.46777344 289.32666016 C-183.98016644 285.38339756 -181.48995129 281.44178256 -179 277.5 C-175.94075761 272.6566592 -172.88188021 267.81308906 -169.82421875 262.96875 C-165.19024137 255.62779574 -160.55256866 248.2895024 -155.88671875 240.96875 C-153.35430789 236.98400414 -150.83322429 232.99214613 -148.3125 229 C-147.79671387 228.18313721 -147.28092773 227.36627441 -146.74951172 226.5246582 C-144.18239045 222.45839835 -141.61616111 218.39157744 -139.05078125 214.32421875 C-129.55859503 199.27826259 -120.06275635 184.2335478 -110.375 169.3125 C-105.01554987 161.0566328 -99.75972822 152.73700638 -94.51611328 144.40722656 C-91.51388312 139.64040057 -88.50346502 134.87873995 -85.49365234 130.11669922 C-83.02580077 126.21120204 -80.56146216 122.30359183 -78.10546875 118.390625 C-66.54104077 99.98400772 -54.60774105 81.82088874 -42.51708984 63.7565918 C-39.07602497 58.61528795 -35.64372432 53.46950141 -32.26171875 48.2890625 C-31.70444092 47.43932861 -31.14716309 46.58959473 -30.57299805 45.71411133 C-29.55189964 44.1551256 -28.53611035 42.59264473 -27.52661133 41.02612305 C-26.40266222 39.31571225 -25.20890881 37.65145578 -24 36 C-23.34 36 -22.68 36 -22 36 C-20.76766239 33.63011998 -19.74774781 31.32290203 -18.8125 28.8125 C-16.78325409 24.00088598 -13.56592147 19.7893286 -10 16 C-9.34 16 -8.68 16 -8 16 C-7.90589844 15.12085938 -7.81179688 14.24171875 -7.71484375 13.3359375 C-6.9322283 9.68373207 -5.73647182 7.63511483 -3.5625 4.625 C-2.94503906 3.75101562 -2.32757812 2.87703125 -1.69140625 1.9765625 C-1.13324219 1.32429688 -0.57507812 0.67203125 0 0 Z " fill="#5619A1" transform="translate(1080,335)"/>
<path d="M0 0 C0.33 0 0.66 0 1 0 C1.33 91.74 1.66 183.48 2 278 C8.62039039 272.22242916 8.62039039 272.22242916 14 266 C16.72466734 263.56989129 19.27101015 261.85481599 22.5 260.125 C26.21746329 258.09364317 28.30231651 255.25105446 31 252 C32.98246398 250.96567096 34.98413316 249.96761608 37 249 C41.72046535 245.68680203 41.72046535 245.68680203 44.765625 240.99609375 C46.37878435 238.38747215 48.27670376 237.9789811 51.05615234 236.91162109 C54.65447159 235.22408981 57.3992625 232.47026372 60.3125 229.8125 C61.62899647 228.64186489 62.94670669 227.47259333 64.265625 226.3046875 C64.90177734 225.7384668 65.53792969 225.17224609 66.19335938 224.58886719 C71.81843059 219.64184509 77.66460901 215.00129958 84 211 C84.52851562 211.71929688 85.05703125 212.43859375 85.6015625 213.1796875 C88.23899063 216.28102807 91.15164693 218.67870926 94.375 221.125 C95.62899839 222.09363072 96.88290193 223.06238426 98.13671875 224.03125 C98.77657715 224.52238281 99.41643555 225.01351562 100.07568359 225.51953125 C103.12850744 227.86821481 106.15881336 230.24531764 109.1875 232.625 C110.06631836 233.31480957 110.06631836 233.31480957 110.96289062 234.01855469 C115.36685658 237.48304078 119.71604167 241.00994204 124.04296875 244.5703125 C127.58038481 247.47688157 131.13302527 250.36433673 134.6875 253.25 C136.0585958 254.36327872 137.42968953 255.47656 138.80078125 256.58984375 C139.49123535 257.1504248 140.18168945 257.71100586 140.89306641 258.28857422 C143.00636266 260.00516828 145.11857769 261.72308379 147.23046875 263.44140625 C155.59356267 270.24755137 155.59356267 270.24755137 164 277 C168.22767187 280.37223993 172.42879127 283.77626566 176.625 287.1875 C177.64762939 288.01870361 177.64762939 288.01870361 178.69091797 288.86669922 C182.16087258 291.68821569 185.62863641 294.51238422 189.09375 297.33984375 C195.33362003 302.42703028 201.58898234 307.48631165 207.9375 312.4375 C214.03346749 317.19256539 220.0047539 322.09029472 225.96240234 327.01708984 C230.39049312 330.67841165 234.84499062 334.30064323 239.34375 337.875 C243.63709193 341.30967354 247.89155546 344.79222038 252.15258789 348.2668457 C256.57515364 351.86537693 261.04012332 355.39591385 265.59375 358.828125 C266.0578125 359.21484375 266.521875 359.6015625 267 360 C267 360.33 267 360.66 267 361 C178.56 361 90.12 361 -1 361 C-1 406.21 -1 451.42 -1 498 C-41.59 498 -82.18 498 -124 498 C-123.505 496.02 -123.505 496.02 -123 494 C-122.67 494.66 -122.34 495.32 -122 496 C-121.71801758 495.51644043 -121.43603516 495.03288086 -121.14550781 494.53466797 C-119.84890434 492.31366375 -118.54947377 490.09432598 -117.25 487.875 C-116.58484375 486.73417969 -116.58484375 486.73417969 -115.90625 485.5703125 C-113.93011618 482.19926068 -111.94572953 478.86608825 -109.73828125 475.640625 C-107.88474362 472.8249139 -107.04005208 470.18949306 -106 467 C-104.5 464.625 -104.5 464.625 -103 463 C-102.34 463 -101.68 463 -101 463 C-100.82984375 462.40832031 -100.6596875 461.81664062 -100.484375 461.20703125 C-98.9683557 456.26384065 -97.38643414 452.9669657 -94 449 C-90.05453534 442.91555885 -90.05453534 442.91555885 -86.9765625 436.375 C-85.61277834 433.05827691 -83.28613757 430.74336508 -81 428 C-80.30341637 426.34561387 -79.63903117 424.67745682 -79 423 C-76.94142118 419.42414196 -74.64341604 415.99180228 -72.3984375 412.53125 C-68.72459523 406.82756793 -65.26135183 401.04501983 -61.921875 395.14233398 C-54.60209163 382.20583207 -54.60209163 382.20583207 -51.44425964 377.85798645 C-49.61369174 374.23555035 -49.55982914 371.0556596 -49.56762695 367.08862305 C-49.55233948 365.91709938 -49.55233948 365.91709938 -49.53674316 364.72190857 C-49.50665568 362.15177192 -49.49735387 359.58200825 -49.48828125 357.01171875 C-49.47143139 355.2252326 -49.45328073 353.43875828 -49.43388367 351.65229797 C-49.38641083 346.95880837 -49.35658391 342.26536675 -49.33044434 337.57171631 C-49.30062511 332.77883427 -49.25409945 327.98611752 -49.20898438 323.19335938 C-49.12298217 313.79565942 -49.05562315 304.39792543 -49 295 C-37.59501296 306.28151826 -28.97143795 320.10000686 -19.8972168 333.25390625 C-15.38349575 339.78721398 -10.8509456 346.28951813 -6.0625 352.625 C-5.29035156 353.64851563 -4.51820313 354.67203125 -3.72265625 355.7265625 C-2.86994141 356.85191406 -2.86994141 356.85191406 -2 358 C-0.97431811 354.61044129 -0.87007944 351.51209576 -0.8613348 347.97925949 C-0.85586036 346.73817326 -0.85038591 345.49708704 -0.84474558 344.21839213 C-0.84366938 342.83885247 -0.84268468 341.45931274 -0.84178162 340.07977295 C-0.83721603 338.61614002 -0.83221601 337.15250839 -0.82681805 335.6888783 C-0.81322716 331.66176141 -0.80581583 327.63465298 -0.79939139 323.60751915 C-0.79139163 319.26670719 -0.77769239 314.92591283 -0.76467896 310.58511353 C-0.74291019 303.06265565 -0.72476716 295.54019599 -0.70907402 288.01772308 C-0.68637905 277.14143726 -0.65823569 266.26517092 -0.62875474 255.38890162 C-0.58107427 237.74365135 -0.53781131 220.09839311 -0.49731445 202.453125 C-0.45796185 185.31054057 -0.41653618 168.16796322 -0.37231445 151.02539062 C-0.36959018 149.96904508 -0.36686591 148.91269954 -0.36405908 147.82434353 C-0.35037964 142.52506476 -0.33665936 137.22578609 -0.32291877 131.92650747 C-0.20894684 87.95101974 -0.10213906 43.9755167 0 0 Z " fill="#5B1BB0" transform="translate(461,418)"/>
<path d="M0 0 C2.90809641 2.8793228 5.65240652 5.66327272 8.05859375 8.9765625 C8.60209473 9.71994873 9.1455957 10.46333496 9.70556641 11.22924805 C10.27710449 12.01984619 10.84864258 12.81044434 11.4375 13.625 C12.68350176 15.3320984 13.9295982 17.03912769 15.17578125 18.74609375 C15.8095166 19.61733887 16.44325195 20.48858398 17.09619141 21.38623047 C20.09086022 25.4976596 23.10726185 29.59298851 26.125 33.6875 C26.70693115 34.47785645 27.2888623 35.26821289 27.88842773 36.08251953 C31.56738166 41.07395121 35.27282025 46.04450277 39 51 C48.3262369 63.40797705 57.56103721 75.87344228 66.46313477 88.59008789 C70.20314933 93.91628865 74.05464502 99.15230916 77.9375 104.375 C83.26460731 111.54842591 88.39432535 118.83324179 93.38647461 126.24365234 C96.07459657 130.22641639 98.82397158 134.14515467 101.671875 138.015625 C107.11095223 145.45407751 112.22710805 153.10891331 117.375 160.75 C118.3618106 162.21105137 119.34878905 163.67198938 120.3359375 165.1328125 C131.29909023 181.36621742 142.10960563 197.69741119 152.875 214.0625 C154.69240483 216.82459785 156.50993983 219.5866099 158.32766724 222.34849548 C159.44756553 224.05015078 160.56726753 225.75193528 161.68673706 227.45387268 C164.44453561 231.64491621 167.21166633 235.82920465 170 240 C168.50553115 243.68690392 166.47761573 245.4957133 163.375 247.9375 C162.39015625 248.72253906 161.4053125 249.50757813 160.390625 250.31640625 C159.84857422 250.74453613 159.30652344 251.17266602 158.74804688 251.61376953 C155.51904444 254.17442258 152.32372763 256.77670307 149.125 259.375 C148.4434082 259.92752441 147.76181641 260.48004883 147.05957031 261.04931641 C142.15786497 265.03180674 137.32414052 269.08730623 132.51660156 273.18261719 C128.54938879 276.55511974 124.51192258 279.82593824 120.43359375 283.0625 C112.29271014 289.54384554 104.30340954 296.21821446 96.27270508 302.83520508 C89.6900113 308.2581924 83.08987999 313.65950796 76.484375 319.0546875 C70.06603561 324.3008152 63.66452541 329.5670681 57.26806641 334.83984375 C53.27110491 338.13366085 49.26613121 341.41705397 45.25 344.6875 C40.73235797 348.37690766 36.27956846 352.13818193 31.83496094 355.91479492 C27.5476873 359.55211584 23.20446408 363.11590509 18.83984375 366.66015625 C16.72939681 368.39902519 14.64154861 370.15350079 12.56640625 371.93359375 C11.98375 372.43246094 11.40109375 372.93132812 10.80078125 373.4453125 C9.66881663 374.41702146 8.53974961 375.39211942 7.4140625 376.37109375 C4.72178109 378.68068179 2.20156515 380.4938101 -1 382 C-1.03277288 359.95834077 -1.05164736 337.91668006 -1.0625 315.875 C-1.0629343 315.01964912 -1.06336861 314.16429825 -1.06381607 313.28302765 C-1.09871937 242.52102101 -0.83644763 171.76112318 -0.5 101 C-0.49402628 99.74171229 -0.48805257 98.48342459 -0.48189783 97.18700695 C-0.32796619 64.791304 -0.16752102 32.39563548 0 0 Z " fill="#6621B4" transform="translate(630,177)"/>
<path d="M0 0 C1.67401097 0.64800425 3.33805262 1.32165413 5 2 C5.6403418 2.26014893 6.28068359 2.52029785 6.94042969 2.78833008 C12.82351119 5.28022964 18.0117637 8.38945661 23.3125 11.9375 C25.07540668 13.10043348 26.8384309 14.26318879 28.6015625 15.42578125 C29.49520508 16.0182666 30.38884766 16.61075195 31.30957031 17.22119141 C35.58547209 20.04825314 39.88692115 22.83568384 44.1875 25.625 C45.86464908 26.71474257 47.54173326 27.80458503 49.21875 28.89453125 C50.81246294 29.92974455 52.40621121 30.96490348 54 32 C55.051875 32.68328369 55.051875 32.68328369 56.125 33.38037109 C62.8989974 37.77858431 69.6812916 42.16298585 76.4921875 46.50390625 C91.90365213 56.3291257 107.19794032 66.32247695 122.46780396 76.36581421 C130.23986433 81.47581277 138.03761854 86.54601711 145.84423828 91.60302734 C147.96884086 92.97980831 150.09197111 94.35883475 152.21484375 95.73828125 C160.05364143 100.82697812 167.92285901 105.86548628 175.8125 110.875 C185.45641293 116.99902282 195.04325374 123.20689493 204.61279297 129.44628906 C209.21632245 132.44249091 213.83124312 135.42112476 218.4465332 138.39916992 C219.09066162 138.81529541 219.73479004 139.2314209 220.3984375 139.66015625 C221.22867432 140.19588257 221.22867432 140.19588257 222.07568359 140.74243164 C222.71070801 141.1574292 223.34573242 141.57242676 224 142 C225.52221129 142.75915648 225.52221129 142.75915648 227.07517433 143.53364944 C230 146 230 146 230.73828697 149.88116074 C230.76350519 151.4936454 230.75536791 153.1068505 230.7215271 154.71917725 C230.72665365 155.60872581 230.7317802 156.49827437 230.7370621 157.41477895 C230.74696227 160.40192649 230.71391893 163.38706158 230.68115234 166.37402344 C230.67946029 168.51251681 230.68040913 170.65101367 230.68380737 172.789505 C230.6855321 178.60137029 230.6502041 184.41249578 230.60836363 190.2241888 C230.57090949 196.29535633 230.56733545 202.36653995 230.56021118 208.43780518 C230.54154676 219.9374005 230.49228781 231.43665444 230.43211424 242.93609929 C230.36509902 256.02658401 230.3320726 269.11708485 230.30194163 282.20769835 C230.23919043 309.13865498 230.13362409 336.06930838 230 363 C226.9769311 359.2587544 224.16506963 355.43996968 221.5 351.4375 C221.07058105 350.79329102 220.64116211 350.14908203 220.19873047 349.48535156 C216.14301511 343.33275435 212.36717073 337.02340927 208.60351562 330.68945312 C203.71473184 322.47505082 198.6201558 314.40001301 193.48681641 306.33691406 C191.04589673 302.50038152 188.61622203 298.65676218 186.1875 294.8125 C185.70023438 294.04156006 185.21296875 293.27062012 184.7109375 292.47631836 C179.97640926 284.97768813 175.28108243 277.45469494 170.5847168 269.93212891 C163.04382091 257.85854422 155.43886732 245.82605881 147.79394531 233.81811523 C146.05170316 231.08122068 144.31080255 228.34347779 142.5703125 225.60546875 C141.42191272 223.79945518 140.27347449 221.99346606 139.125 220.1875 C138.51422607 219.22682617 137.90345215 218.26615234 137.27416992 217.27636719 C133.97319497 212.08793739 130.65520519 206.91161864 127.3125 201.75 C123.97256501 196.57310077 120.75519631 191.33125165 117.5625 186.0625 C113.30679012 179.04395978 108.85783951 172.18730484 104.26953125 165.3828125 C101.70010515 161.56983976 99.23229752 157.69608525 96.77734375 153.80859375 C94.70147746 150.52826878 92.601976 147.26362905 90.5 144 C87.24799773 138.94777001 84.01443147 133.88427655 80.79296875 128.8125 C78.80980085 125.70164839 76.81146124 122.60070915 74.8125 119.5 C70.60670849 112.97510145 66.46277144 106.41179497 62.3371582 99.8359375 C59.46866344 95.27663766 56.53290731 90.77126102 53.53344727 86.29711914 C50.84058463 82.26318433 48.20345951 78.19302772 45.5625 74.125 C44.70990601 72.81281494 44.70990601 72.81281494 43.84008789 71.47412109 C40.31737399 66.04673377 36.81654964 60.60717331 33.3671875 55.1328125 C32.14159036 53.22088096 30.8651854 51.35969571 29.5625 49.5 C28 47 28 47 28 44 C27.34 44 26.68 44 26 44 C24.24728296 41.59297475 22.60768146 39.18859301 21 36.6875 C20.32324219 35.65206055 20.32324219 35.65206055 19.6328125 34.59570312 C18.78982132 33.30502876 17.94968115 32.01248476 17.11328125 30.7175293 C16.08849818 29.13653173 15.04509604 27.56764406 14 26 C14 25.01 14 24.02 14 23 C13.34 23 12.68 23 12 23 C11.401875 21.9275 10.80375 20.855 10.1875 19.75 C8.96851221 17.59833472 7.77366969 15.70900388 6.25 13.75 C5 12 5 12 5 9 C4.34 9 3.68 9 3 9 C3 8.01 3 7.02 3 6 C2.34 6 1.68 6 1 6 C0.67 4.02 0.34 2.04 0 0 Z " fill="#7728DC" transform="translate(182,339)"/>
<path d="M0 0 C11.40498704 11.28151826 20.02856205 25.10000686 29.1027832 38.25390625 C33.61650425 44.78721398 38.1490544 51.28951813 42.9375 57.625 C43.70964844 58.64851562 44.48179687 59.67203125 45.27734375 60.7265625 C45.84582031 61.47679687 46.41429687 62.22703125 47 63 C47.66 61.68 48.32 60.36 49 59 C48.67 106.52 48.34 154.04 48 203 C7.41 203 -33.18 203 -75 203 C-74.505 201.02 -74.505 201.02 -74 199 C-73.67 199.66 -73.34 200.32 -73 201 C-72.71801758 200.51644043 -72.43603516 200.03288086 -72.14550781 199.53466797 C-70.84890434 197.31366375 -69.54947377 195.09432598 -68.25 192.875 C-67.8065625 192.11445312 -67.363125 191.35390625 -66.90625 190.5703125 C-64.93011618 187.19926068 -62.94572953 183.86608825 -60.73828125 180.640625 C-58.88474362 177.8249139 -58.04005208 175.18949306 -57 172 C-55.5 169.625 -55.5 169.625 -54 168 C-53.34 168 -52.68 168 -52 168 C-51.82984375 167.40832031 -51.6596875 166.81664062 -51.484375 166.20703125 C-49.9683557 161.26384065 -48.38643414 157.9669657 -45 154 C-41.05453534 147.91555885 -41.05453534 147.91555885 -37.9765625 141.375 C-36.61277834 138.05827691 -34.28613757 135.74336508 -32 133 C-31.30341637 131.34561387 -30.63903117 129.67745682 -30 128 C-27.94142118 124.42414196 -25.64341604 120.99180228 -23.3984375 117.53125 C-19.72459523 111.82756793 -16.26135183 106.04501983 -12.921875 100.14233398 C-5.60209163 87.20583207 -5.60209163 87.20583207 -2.44425964 82.85798645 C-0.61369174 79.23555035 -0.55982914 76.0556596 -0.56762695 72.08862305 C-0.5574353 71.30760727 -0.54724365 70.52659149 -0.53674316 69.72190857 C-0.50665568 67.15177192 -0.49735387 64.58200825 -0.48828125 62.01171875 C-0.47143139 60.2252326 -0.45328073 58.43875828 -0.43388367 56.65229797 C-0.38641083 51.95880837 -0.35658391 47.26536675 -0.33044434 42.57171631 C-0.30062511 37.77883427 -0.25409945 32.98611752 -0.20898438 28.19335938 C-0.12298217 18.79565942 -0.05562315 9.39792543 0 0 Z " fill="#2B0665" transform="translate(412,713)"/>
<path d="M0 0 C4.26979187 1.42326396 5.54937075 4.58526203 7.8125 8.25 C8.79534442 9.80565556 9.77979527 11.36029704 10.765625 12.9140625 C11.28833984 13.74067383 11.81105469 14.56728516 12.34960938 15.41894531 C15.19108073 19.8627375 18.12804761 24.24227783 21.0625 28.625 C21.95594116 29.96183838 21.95594116 29.96183838 22.86743164 31.32568359 C24.03570907 33.0735255 25.20439821 34.82109229 26.37353516 36.56835938 C28.66970186 40.00123545 30.96003234 43.43798713 33.25 46.875 C34.04423351 48.06643113 34.83850387 49.2578377 35.6328125 50.44921875 C43.484375 62.2265625 51.3359375 74.00390625 59.1875 85.78125 C59.76564453 86.64838623 60.34378906 87.51552246 60.93945312 88.40893555 C62.15199287 90.22790867 63.36422977 92.0470837 64.57617188 93.86645508 C67.45008027 98.18000142 70.32747886 102.49103709 73.21875 106.79296875 C78.918506 115.28455304 84.47204069 123.84373929 89.84375 132.546875 C91.82432235 135.74680802 93.903106 138.87495152 96 142 C97.01187895 143.65948148 98.0126546 145.32580562 99 147 C99.556875 147.886875 100.11375 148.77375 100.6875 149.6875 C102 152 102 152 102 154 C102.66 154 103.32 154 104 154 C105.32 156.31 106.64 158.62 108 161 C108.66 159.35 109.32 157.7 110 156 C110.93423645 159.01031744 111.04449911 159.86650268 110 163 C69.74 163 29.48 163 -12 163 C-12.32242427 129.07827953 -12.32242427 129.07827953 -12.390625 114.77539062 C-12.43794679 104.93072866 -12.49333012 95.08661765 -12.60351562 85.24243164 C-12.68375404 78.07030052 -12.7349828 70.89861978 -12.75270796 63.72605222 C-12.76305466 59.93494962 -12.78701823 56.14513436 -12.84584045 52.35444832 C-13.09087642 35.92293724 -12.91891669 22.26731709 -4 8 C-2.61671773 5.355427 -1.30863088 2.68282891 0 0 Z " fill="#1C024A" transform="translate(813,753)"/>
<path d="M0 0 C5.88165041 2.60127787 10.81015658 7.63593816 13.68359375 13.3828125 C14.36338363 22.72992337 13.97624811 29.33680161 8.12109375 36.8203125 C6.91453125 38.08875 6.91453125 38.08875 5.68359375 39.3828125 C5.02359375 39.3828125 4.36359375 39.3828125 3.68359375 39.3828125 C7.56873192 56.25095008 13.94512509 70.44259934 25.68359375 83.3828125 C26.48152344 84.27355469 27.27945313 85.16429687 28.1015625 86.08203125 C38.59378594 97.19417927 50.23236689 104.44480611 64.68359375 109.3828125 C65.96129464 109.95094592 67.2336597 110.53151773 68.49609375 111.1328125 C72.30153305 112.62514164 75.62814384 112.9632832 79.68359375 113.3828125 C80.01359375 113.7128125 80.34359375 114.0428125 80.68359375 114.3828125 C85.09311339 114.66959639 89.51589508 114.61485438 93.93359375 114.6328125 C95.155625 114.6534375 96.37765625 114.6740625 97.63671875 114.6953125 C119.09125986 114.78622157 139.37640763 106.19081301 155.68359375 92.3828125 C156.33585938 91.87492188 156.988125 91.36703125 157.66015625 90.84375 C173.00321618 78.43482105 183.76562567 58.58085607 187.68359375 39.3828125 C187.10609375 39.1559375 186.52859375 38.9290625 185.93359375 38.6953125 C181.60197576 36.16853534 178.960467 32.17108719 177.68359375 27.3828125 C177.06078008 19.76632034 177.46642758 12.86865232 182.37109375 6.6953125 C187.74479606 1.00098356 191.75233991 -0.86446554 199.55859375 -1.2421875 C206.45174348 -1.04419277 210.67194126 0.70305753 215.68359375 5.3828125 C221.2773419 11.40684897 222.15168983 16.01421241 221.98828125 24.12109375 C221.46926915 29.67718487 219.90001923 33.3144572 215.8125 37.12890625 C212.97807001 39.36323008 210.51640408 41.11224223 207.0625 42.234375 C204.51153227 43.18529277 204.51153227 43.18529277 203.42578125 45.6328125 C203.13960937 46.5403125 202.8534375 47.4478125 202.55859375 48.3828125 C202.22859375 49.38183594 201.89859375 50.38085938 201.55859375 51.41015625 C201.04270845 53.16278442 200.55221494 54.92383776 200.12109375 56.69921875 C196.68212052 70.43122991 188.05246937 83.00242995 178.68359375 93.3828125 C177.96558594 94.23101563 177.24757813 95.07921875 176.5078125 95.953125 C164.59572038 109.79061744 149.55810279 119.64221107 132.68359375 126.3828125 C131.9551123 126.67639648 131.22663086 126.96998047 130.47607422 127.27246094 C118.68410042 131.81072855 107.27329979 132.92399309 94.74609375 132.8828125 C94.04219513 132.88135223 93.33829651 132.87989197 92.61306763 132.87838745 C85.8761227 132.83518992 80.04865973 132.71691119 73.68359375 130.3828125 C71.22713727 129.83269697 68.76862103 129.29173323 66.30859375 128.7578125 C57.37502928 126.64703791 49.64829521 122.86680741 41.68359375 118.3828125 C40.719375 117.84914063 39.75515625 117.31546875 38.76171875 116.765625 C19.82105069 105.50209163 7.01920227 89.46956125 -3.31640625 70.3828125 C-3.82042969 69.65191406 -4.32445312 68.92101562 -4.84375 68.16796875 C-6.26089087 65.48780578 -7.00235198 63.17298045 -7.7890625 60.2578125 C-8.05009766 59.30390625 -8.31113281 58.35 -8.58007812 57.3671875 C-9.11084603 55.38426977 -9.61630696 53.39439757 -10.09570312 51.3984375 C-11.67135387 45.74719326 -11.67135387 45.74719326 -15.68701172 41.68310547 C-18.32787496 40.3513435 -18.32787496 40.3513435 -20.97436523 39.37060547 C-24.73591563 37.78411189 -26.12456603 35.80756284 -28.31640625 32.3828125 C-30.62733821 26.55046042 -31.48414674 20.36643352 -29.69921875 14.27734375 C-24.37989926 2.10881199 -12.73515874 -3.39317889 0 0 Z " fill="#7B28E2" transform="translate(533.31640625,826.6171875)"/>
<path d="M0 0 C0.33 0 0.66 0 1 0 C1 70.62 1 141.24 1 214 C-2.02146045 210.22317444 -4.82700615 206.45187048 -7.5 202.4375 C-7.92941895 201.79329102 -8.35883789 201.14908203 -8.80126953 200.48535156 C-12.85552209 194.33497344 -16.6306608 188.02824788 -20.39208984 181.69604492 C-23.88534768 175.82507488 -27.46912592 170.02094478 -31.125 164.25 C-31.61411865 163.46705566 -32.1032373 162.68411133 -32.60717773 161.87744141 C-34.99584761 158.07003917 -37.4407691 154.34844311 -40.08203125 150.7109375 C-40.80398682 149.67598145 -40.80398682 149.67598145 -41.54052734 148.62011719 C-42.43372524 147.34447699 -43.35763913 146.08946741 -44.31884766 144.86425781 C-46.378706 141.85977756 -47.07162263 139.884946 -46.77416992 136.2097168 C-44.83955008 127.12367466 -41.52577978 118.31212093 -38.4375 109.5625 C-37.93751802 108.13108033 -37.43816602 106.69944045 -36.93945312 105.26757812 C-36.02661044 102.64775247 -35.10952714 100.02957812 -34.18920898 97.41235352 C-33.41866426 95.20132834 -32.6622763 92.98529798 -31.92285156 90.76367188 C-30.81581983 87.44843398 -29.56489282 84.20058376 -28.3125 80.9375 C-25.9192825 74.63402855 -23.72837002 68.28058218 -21.625 61.875 C-19.25399536 54.65698727 -16.75659687 47.50205224 -14.125 40.375 C-10.49510522 30.53921395 -7.15597088 20.61695545 -3.88134766 10.65771484 C-3.51960449 9.5589502 -3.15786133 8.46018555 -2.78515625 7.328125 C-2.46426025 6.3474707 -2.14336426 5.36681641 -1.81274414 4.35644531 C-1 2 -1 2 0 0 Z " fill="#5116A3" transform="translate(411,488)"/>
<path d="M0 0 C0.33 0 0.66 0 1 0 C1.33 96.03 1.66 192.06 2 291 C2.66 291.33 3.32 291.66 4 292 C4 291.34 4 290.68 4 290 C5.2065625 289.5978125 5.2065625 289.5978125 6.4375 289.1875 C7.283125 288.795625 8.12875 288.40375 9 288 C9.33 287.01 9.66 286.02 10 285 C12.13560077 283.22894399 14.26292546 281.56899704 16.5 279.9375 C20.86287622 277.02649861 20.86287622 277.02649861 24 273 C25.32 273.33 26.64 273.66 28 274 C21.69292415 279.36452397 15.37726086 284.71896679 9 290 C8.154375 290.70125 7.30875 291.4025 6.4375 292.125 C4.04758919 293.96339293 1.59504115 295.47147327 -1 297 C-1.03143323 273.18750652 -1.05124643 249.37501135 -1.0625 225.5625 C-1.0629343 224.67023335 -1.06336861 223.77796669 -1.06381607 222.85866165 C-1.08975288 168.07043224 -0.93717881 113.28654315 -0.5 58.5 C-0.49402628 57.74947814 -0.48805257 56.99895627 -0.48189783 56.22569132 C-0.33250579 37.48369448 -0.17292269 18.74179578 0 0 Z " fill="#5B19A8" transform="translate(630,262)"/>
<path d="M0 0 C0.33 0 0.66 0 1 0 C1.02370942 27.64989918 1.04116079 55.29979676 1.05181217 82.94970417 C1.05689651 95.79760905 1.06380944 108.64550744 1.07543945 121.4934082 C1.12738271 180.00358206 1.06165006 238.49803071 0 297 C-0.33 297 -0.66 297 -1 297 C-0.99962028 296.41056626 -0.99924056 295.82113252 -0.99884933 295.21383715 C-0.97646865 260.27505523 -0.95931212 225.33627455 -0.94893467 190.39748695 C-0.94768397 186.20184025 -0.94638965 182.00619356 -0.94506836 177.81054688 C-0.94480605 176.97527322 -0.94454374 176.13999957 -0.94427348 175.27941459 C-0.93992281 161.75684351 -0.93203857 148.23427669 -0.9228472 134.71170813 C-0.91349391 120.83511749 -0.90794083 106.95852907 -0.90591151 93.08193541 C-0.90453977 84.52015446 -0.90020802 75.95838554 -0.89208353 67.39660829 C-0.88679542 61.52456069 -0.88520042 55.65251929 -0.88649862 49.78046948 C-0.88713876 46.39321978 -0.88561344 43.00600801 -0.88079453 39.61875916 C-0.87582148 35.94312898 -0.87701512 32.2675503 -0.87974548 28.59191895 C-0.87683264 27.52575615 -0.8739198 26.45959336 -0.87091869 25.36112261 C-0.88206588 19.81129633 -1.1745758 14.48988523 -2 9 C-2.99 9 -3.98 9 -5 9 C-3.75471468 5.55151758 -2.38532951 2.80016942 0 0 Z " fill="#B054EF" transform="translate(629,177)"/>
<path d="M0 0 C0.33 0 0.66 0 1 0 C1.00173625 0.56301567 1.0034725 1.12603134 1.00526136 1.70610809 C1.1094365 35.45480382 1.21776299 69.20348359 1.33111694 102.95214969 C1.34487824 107.05029371 1.35860657 111.14843783 1.37231445 115.24658203 C1.37504276 116.0620772 1.37777106 116.87757237 1.38058204 117.71777952 C1.41870191 129.13224446 1.45504971 140.54671383 1.48995765 151.96118903 C1.5500804 171.61997492 1.61366611 191.27874637 1.68359375 210.9375 C1.6862968 211.69963428 1.68899984 212.46176857 1.6917848 213.24699783 C1.85522397 259.16846935 2.11058312 305.08574909 3 351 C2.01 350.67 1.02 350.34 0 350 C0 234.5 0 119 0 0 Z " fill="#5B1E9B" transform="translate(461,418)"/>
<path d="M0 0 C0.33 0 0.66 0 1 0 C1 53.46 1 106.92 1 162 C0.34 161.67 -0.32 161.34 -1 161 C-1.17723397 140.59891399 -1.34290815 120.19776546 -1.49477577 99.79647446 C-1.5655589 90.32406081 -1.64014165 80.85170539 -1.72363281 71.37939453 C-1.7963839 63.12448706 -1.8620431 54.86955906 -1.91914403 46.61452794 C-1.94963452 42.24251441 -1.98370467 37.8705942 -2.02626419 33.49868011 C-2.0661982 29.38496862 -2.0966601 25.27129646 -2.11981392 21.15745735 C-2.12999558 19.64653059 -2.14365729 18.13562271 -2.16103554 16.62476158 C-2.18422631 14.56355943 -2.19495055 12.50265525 -2.20254517 10.44134521 C-2.2117631 9.2872604 -2.22098103 8.13317558 -2.23047829 6.9441185 C-2.00543474 4.06942313 -1.50038191 2.42746339 0 0 Z " fill="#5612AD" transform="translate(411,488)"/>
<path d="M0 0 C0.33 0 0.66 0 1 0 C1.13054662 14.55117303 1.26093853 29.10234743 1.39115143 43.65352345 C1.45161281 50.40972266 1.51212444 57.16592143 1.57275391 63.92211914 C1.6312303 70.43840618 1.68956725 76.95469445 1.74781799 83.47098351 C1.7700994 85.96094492 1.79242807 88.45090591 1.81480408 90.94086647 C1.84606103 94.41996783 1.87715216 97.89907063 1.90820312 101.37817383 C1.92222923 102.93291916 1.92222923 102.93291916 1.9365387 104.51907349 C1.94495285 105.46558273 1.953367 106.41209198 1.96203613 107.38728333 C1.96941048 108.21044446 1.97678482 109.03360559 1.98438263 109.88171101 C1.99696077 111.58776891 2 113.29389573 2 115 C1.01 115.495 1.01 115.495 0 116 C0 77.72 0 39.44 0 0 Z " fill="#8E2DF4" transform="translate(462,581)"/>
<path d="M0 0 C0.66 0 1.32 0 2 0 C2.48108275 1.41601714 2.95978141 2.83284437 3.4375 4.25 C3.83775391 5.43335938 3.83775391 5.43335938 4.24609375 6.640625 C6.16969697 12.66060606 6.16969697 12.66060606 5 15 C5.66 15 6.32 15 7 15 C6.67 16.32 6.34 17.64 6 19 C6.66 19 7.32 19 8 19 C8.12375 19.845625 8.2475 20.69125 8.375 21.5625 C9.18829833 27.73648027 9.18829833 27.73648027 12 33 C13.31582063 30.73103368 14.62775236 28.45996813 15.9375 26.1875 C16.31068359 25.54490234 16.68386719 24.90230469 17.06835938 24.24023438 C18.63466635 21.51683576 20.00369374 18.98891878 21 16 C21.66 16 22.32 16 23 16 C23.66 14.68 24.32 13.36 25 12 C25 15.6066382 24.0502888 16.98583388 22.2265625 20.0703125 C21.6490625 21.04871094 21.0715625 22.02710938 20.4765625 23.03515625 C19.86554688 24.05480469 19.25453125 25.07445312 18.625 26.125 C18.02171875 27.15238281 17.4184375 28.17976562 16.796875 29.23828125 C12.26026492 36.86986754 12.26026492 36.86986754 10 38 C8.57256336 32.91058095 7.14848382 27.82023929 5.72753906 22.72900391 C5.24344094 20.99632251 4.75841832 19.26389914 4.27246094 17.53173828 C3.57505308 15.04526576 2.88094999 12.5578913 2.1875 10.0703125 C1.96876221 9.29317902 1.75002441 8.51604553 1.5246582 7.71536255 C0 2.22774341 0 2.22774341 0 0 Z " fill="#5C16BA" transform="translate(328,877)"/>
<path d="M0 0 C0.66 0 1.32 0 2 0 C4.34631085 6.03492977 6.16484639 11.5573864 7 18 C7.68914267 20.24178941 8.46205815 22.44462118 9.2421875 24.65625 C10.24105683 27.7455366 10.87280469 30.86690491 11.47265625 34.0546875 C11.97089163 36.30048939 11.97089163 36.30048939 14 39 C14.25742185 40.99501931 14.51176173 42.99090647 14.71484375 44.9921875 C15.07477671 47.52650999 15.91714572 49.68991088 17 52 C16.01 52 15.02 52 14 52 C9.0221013 34.73946046 4.3085008 17.44026121 0 0 Z " fill="#6216C0" transform="translate(313,823)"/>
<path d="M0 0 C2.29674382 1.26230959 4.58714709 2.53425733 6.875 3.8125 C7.52597656 4.16892578 8.17695313 4.52535156 8.84765625 4.89257812 C12.06597903 6.70081103 13.9196783 7.87951745 16 11 C12.9168649 9.80100302 9.93720508 8.52299523 7 7 C7.165 8.0725 7.33 9.145 7.5 10.25 C8 14 8 14 8 18 C8.31151288 20.33634657 8.64159778 22.67038557 9 25 C8.34 25 7.68 25 7 25 C6.0139883 21.96050982 5.03743875 18.91805824 4.0625 15.875 C3.78470703 15.0190625 3.50691406 14.163125 3.22070312 13.28125 C1.81158964 8.86715956 0.5974647 4.61333499 0 0 Z " fill="#8C34EF" transform="translate(175,332)"/>
<path d="M0 0 C0.33 0 0.66 0 1 0 C1.33 19.8 1.66 39.6 2 60 C2.33 60 2.66 60 3 60 C3 63.63 3 67.26 3 71 C2.01 70.67 1.02 70.34 0 70 C0 46.9 0 23.8 0 0 Z " fill="#52129D" transform="translate(461,698)"/>
<path d="M0 0 C0.66 0 1.32 0 2 0 C0.11843517 10.64690342 -2.59140215 20.747261 -6 31 C-6.33 31 -6.66 31 -7 31 C-7.29564477 27.15661805 -6.84485381 24.30470748 -5.5 20.75 C-4.21829226 17.24745304 -3.88900268 14.53429734 -4.0625 10.8125 C-4.23868925 5.9021821 -3.26838205 3.65289759 0 0 Z M-5 8 C-5 8.99 -5 9.98 -5 11 C-5.99 11.495 -5.99 11.495 -7 12 C-6.34 10.68 -5.68 9.36 -5 8 Z " fill="#7827CC" transform="translate(1080,335)"/>
<path d="M0 0 C5.43733055 4.52991796 10.46458931 9.34294216 15.4375 14.375 C16.16904297 15.11105469 16.90058594 15.84710937 17.65429688 16.60546875 C19.43852723 18.40136074 21.22036124 20.19955985 23 22 C22.67 22.99 22.34 23.98 22 25 C18.85729827 21.93138275 15.72451195 18.85308324 12.60058594 15.76538086 C11.53621043 14.71610403 10.46915963 13.66953389 9.39941406 12.62573242 C7.86334394 11.12599791 6.33711775 9.61683319 4.8125 8.10546875 C3.89082031 7.19949951 2.96914063 6.29353027 2.01953125 5.36010742 C0 3 0 3 0 0 Z " fill="#852CE4" transform="translate(733,669)"/>
<path d="M0 0 C1.1404825 3.42144751 0.82495652 4.52257714 -0.07421875 7.9375 C-0.45803711 9.40509766 -0.45803711 9.40509766 -0.84960938 10.90234375 C-1.12611328 11.92457031 -1.40261719 12.94679688 -1.6875 14 C-1.94466797 14.99128906 -2.20183594 15.98257812 -2.46679688 17.00390625 C-4.27535415 23.82043418 -6.48233062 30.4137056 -9 37 C-9.33 37 -9.66 37 -10 37 C-9.44591856 28.96581907 -7.34488171 21.68235722 -5 14 C-4.44699219 12.14181641 -4.44699219 12.14181641 -3.8828125 10.24609375 C-1.14570251 1.14570251 -1.14570251 1.14570251 0 0 Z " fill="#7324BF" transform="translate(1038,489)"/>
<path d="M0 0 C0.99 0.33 1.98 0.66 3 1 C1.57731409 3.13402887 0.15392958 5.26753404 -1.2734375 7.3984375 C-2.41814916 9.12327452 -3.54859852 10.85766811 -4.6640625 12.6015625 C-5.18742188 13.41367187 -5.71078125 14.22578125 -6.25 15.0625 C-6.72953125 15.81660156 -7.2090625 16.57070313 -7.703125 17.34765625 C-8.13109375 17.89292969 -8.5590625 18.43820312 -9 19 C-9.66 19 -10.32 19 -11 19 C-11.103125 19.61875 -11.20625 20.2375 -11.3125 20.875 C-12 23 -12 23 -15 25 C-14.36541291 21.12809906 -12.51153263 18.51680468 -10.3125 15.3125 C-9.59707031 14.26191406 -8.88164063 13.21132813 -8.14453125 12.12890625 C-7.43683594 11.09636719 -6.72914063 10.06382812 -6 9 C-4.83050589 7.25188826 -3.66346076 5.50213303 -2.5 3.75 C-1.25 1.875 -1.25 1.875 0 0 Z " fill="#B956EC" transform="translate(572,257)"/>
<path d="M0 0 C0.33 0 0.66 0 1 0 C0.82843426 6.48830426 -0.52918168 12.39748173 -2.4375 18.5625 C-2.7636731 19.63467773 -2.7636731 19.63467773 -3.09643555 20.72851562 C-3.66704409 22.50745907 -4.32682044 24.25728282 -5 26 C-5.66 26.33 -6.32 26.66 -7 27 C-6.33852143 21.38494892 -5.04946005 16.11946424 -3.5 10.6875 C-3.27441406 9.87732422 -3.04882812 9.06714844 -2.81640625 8.23242188 C-1.14275298 2.28550595 -1.14275298 2.28550595 0 0 Z " fill="#6C22B7" transform="translate(1017,563)"/>
<path d="M0 0 C0.33 0 0.66 0 1 0 C1.14286067 6.06891867 1.28526566 12.13784779 1.42724609 18.20678711 C1.47562294 20.27189423 1.52412489 22.33699842 1.57275391 24.40209961 C1.64258084 27.36831923 1.71195969 30.33454905 1.78125 33.30078125 C1.80312378 34.2258699 1.82499756 35.15095856 1.84753418 36.1040802 C1.86755493 36.96474594 1.88757568 37.82541168 1.90820312 38.7121582 C1.92596802 39.46938675 1.94373291 40.2266153 1.96203613 41.00679016 C1.99373252 42.67093972 2 44.33554861 2 46 C1.01 46.495 1.01 46.495 0 47 C0 31.49 0 15.98 0 0 Z " fill="#8324EC" transform="translate(462,650)"/>
<path d="M0 0 C0.33 0 0.66 0 1 0 C1.20418948 5.14425757 0.56840174 9.2732228 -0.9375 14.1875 C-1.29714844 15.37730469 -1.65679688 16.56710937 -2.02734375 17.79296875 C-2.34832031 18.85128906 -2.66929687 19.90960937 -3 21 C-3.3449145 22.33038449 -3.68466053 23.66229678 -4 25 C-4.66 25 -5.32 25 -6 25 C-5.52897524 16.20753786 -2.75783166 8.29384797 0 0 Z " fill="#641DAF" transform="translate(1003,613)"/>
<path d="M0 0 C1.25414522 3.58752521 0.73271684 6.00508642 -0.21484375 9.640625 C-0.48876953 10.71054687 -0.76269531 11.78046875 -1.04492188 12.8828125 C-1.33947266 13.99398438 -1.63402344 15.10515625 -1.9375 16.25 C-2.22818359 17.37664062 -2.51886719 18.50328125 -2.81835938 19.6640625 C-3.53716405 22.44501174 -4.26465981 25.22338584 -5 28 C-5.99 28 -6.98 28 -8 28 C-7.33646475 24.40893586 -6.44344056 20.97047019 -5.37109375 17.48046875 C-4.90219727 15.9480957 -4.90219727 15.9480957 -4.42382812 14.38476562 C-4.09833984 13.32966797 -3.77285156 12.27457031 -3.4375 11.1875 C-3.10814453 10.11306641 -2.77878906 9.03863281 -2.43945312 7.93164062 C-1.62845764 5.28709015 -0.81523628 2.64324563 0 0 Z " fill="#7024BC" transform="translate(1046,459)"/>
<path d="M0 0 C1.32 0 2.64 0 4 0 C5.2048144 1.37214973 6.39839704 2.75758895 7.50390625 4.2109375 C9.78736905 6.94155359 12.50031597 9.11594158 15.23046875 11.38671875 C17 13 17 13 19 16 C16 16 16 16 13.73046875 13.98828125 C12.89128906 13.10527344 12.05210937 12.22226562 11.1875 11.3125 C8.34431677 8.37357268 5.55922827 5.50616147 2.375 2.9375 C1.59125 2.298125 0.8075 1.65875 0 1 C0 0.67 0 0.34 0 0 Z " fill="#7722DA" transform="translate(795,733)"/>
<path d="M0 0 C0.33 0 0.66 0 1 0 C1 7.92 1 15.84 1 24 C0.34 24.33 -0.32 24.66 -1 25 C-1.22634311 21.5842767 -1.42792113 18.16752678 -1.625 14.75 C-1.68945312 13.78191406 -1.75390625 12.81382812 -1.8203125 11.81640625 C-1.871875 10.88183594 -1.9234375 9.94726562 -1.9765625 8.984375 C-2.02893066 8.12553711 -2.08129883 7.26669922 -2.13525391 6.38183594 C-1.9870078 3.77120603 -1.32298482 2.23056144 0 0 Z " fill="#5A15B2" transform="translate(411,488)"/>
<path d="M0 0 C1.97241775 2.95862662 2.64276875 4.97402819 3.5 8.375 C4.43389985 12.05984397 5.57759866 15.47813428 7 19 C7.7496233 21.65144537 8.3635299 24.31773314 9 27 C8.34 27.33 7.68 27.66 7 28 C0.29612756 9.17995444 0.29612756 9.17995444 0 0 Z " fill="#993FDD" transform="translate(201,421)"/>
<path d="M0 0 C0.33 0 0.66 0 1 0 C0.44636539 8.02770189 -1.65687944 15.33854067 -4 23 C-4.66 23 -5.32 23 -6 23 C-5.51219859 18.20328611 -4.84804733 14.45705531 -3 10 C-2.4390587 7.63835581 -1.9416285 5.27060836 -1.46484375 2.890625 C-1 1 -1 1 0 0 Z " fill="#7124C2" transform="translate(1027,527)"/>
<path d="M0 0 C0.66 0.66 1.32 1.32 2 2 C-0.26615424 3.98475596 -2.53754153 5.96288088 -4.8125 7.9375 C-5.77639648 8.78344727 -5.77639648 8.78344727 -6.75976562 9.64648438 C-7.38173828 10.18466797 -8.00371094 10.72285156 -8.64453125 11.27734375 C-9.50075073 12.02359009 -9.50075073 12.02359009 -10.37426758 12.78491211 C-12 14 -12 14 -15 15 C-15 14.01 -15 13.02 -15 12 C-12.6640625 9.73828125 -12.6640625 9.73828125 -9.625 7.3125 C-8.62726562 6.50425781 -7.62953125 5.69601562 -6.6015625 4.86328125 C-4 3 -4 3 -2 3 C-2 2.34 -2 1.68 -2 1 C-1.34 0.67 -0.68 0.34 0 0 Z " fill="#5612A2" transform="translate(680,514)"/>
<path d="M0 0 C1.32 0.33 2.64 0.66 4 1 C1.91784697 2.77223719 -0.16566919 4.54282726 -2.25 6.3125 C-2.83652344 6.81201172 -3.42304687 7.31152344 -4.02734375 7.82617188 C-12.48390935 15 -12.48390935 15 -15 15 C-13.64361509 10.93084527 -10.8365924 9.37087471 -7.5 6.9375 C-3.13712378 4.02649861 -3.13712378 4.02649861 0 0 Z " fill="#4E0F99" transform="translate(654,535)"/>
<path d="M0 0 C0.66 0 1.32 0 2 0 C3.6875 2.1875 3.6875 2.1875 5 5 C4.70700977 6.67422986 4.37309899 8.34178227 4 10 C4.89363605 12.60931266 4.89363605 12.60931266 6 15 C6 15.99 6 16.98 6 18 C5.34 18 4.68 18 4 18 C3.32451422 15.94037148 2.65995688 13.87715678 2 11.8125 C1.62875 10.66394531 1.2575 9.51539063 0.875 8.33203125 C0.09369447 5.35679188 -0.18363306 3.04716104 0 0 Z " fill="#B759F5" transform="translate(178,339)"/>
<path d="M0 0 C5.29012124 4.40843437 10.18808428 9.07559794 15 14 C14.34 14.66 13.68 15.32 13 16 C8.38 11.38 3.76 6.76 -1 2 C-0.67 1.34 -0.34 0.68 0 0 Z " fill="#7D26DC" transform="translate(757,693)"/>
<path d="M0 0 C0.66 0 1.32 0 2 0 C2.103125 0.804375 2.20625 1.60875 2.3125 2.4375 C2.84820655 5.21343393 3.48939076 7.49615165 4.4375 10.125 C6.35473449 15.62295186 7.17341151 21.25277886 8 27 C5.72738252 24.72738252 5.36381835 23.40489412 4.4921875 20.3515625 C4.22792969 19.42859375 3.96367187 18.505625 3.69140625 17.5546875 C3.42199219 16.58789062 3.15257812 15.62109375 2.875 14.625 C2.59785156 13.6659375 2.32070312 12.706875 2.03515625 11.71875 C0.87225167 7.60561953 0 4.31127201 0 0 Z " fill="#B14FF3" transform="translate(183,358)"/>
<path d="M0 0 C0 0.99 0 1.98 0 3 C-0.66 3 -1.32 3 -2 3 C-2.226875 3.70125 -2.45375 4.4025 -2.6875 5.125 C-4.31656867 8.69343613 -6.40640731 11.06514511 -9 14 C-9 11 -9 11 -7 8 C-7.99 7.67 -8.98 7.34 -10 7 C-6.7 4.69 -3.4 2.38 0 0 Z " fill="#9B47EA" transform="translate(1082,332)"/>
<path d="M0 0 C0.99 0.33 1.98 0.66 3 1 C4.125 5.75 4.125 5.75 3 8 C3.66 8 4.32 8 5 8 C5.9765625 14.0546875 5.9765625 14.0546875 6 16 C5.34 16.66 4.68 17.32 4 18 C3.51779737 16.12577848 3.03938167 14.25058246 2.5625 12.375 C2.16224609 10.80878906 2.16224609 10.80878906 1.75390625 9.2109375 C1.03547461 6.15108876 0.48023284 3.1051949 0 0 Z " fill="#6418C0" transform="translate(307,801)"/>
<path d="M0 0 C0.66 0 1.32 0 2 0 C3.42247747 2.84495493 3.20793601 5.3311796 3.25 8.5 C3.27578125 9.6653125 3.3015625 10.830625 3.328125 12.03125 C3.21984375 13.0109375 3.1115625 13.990625 3 15 C2.01 15.66 1.02 16.32 0 17 C0 11.39 0 5.78 0 0 Z " fill="#7128D1" transform="translate(752,839)"/>
<path d="M0 0 C0.99 0.33 1.98 0.66 3 1 C-3.93 6.94 -3.93 6.94 -11 13 C-11.33 12.01 -11.66 11.02 -12 10 C-11.67 9.34 -11.34 8.68 -11 8 C-9.68 8 -8.36 8 -7 8 C-6.773125 7.4225 -6.54625 6.845 -6.3125 6.25 C-4.63315609 3.37112473 -2.77209171 1.82552381 0 0 Z " fill="#882DE8" transform="translate(559,614)"/>
<path d="M0 0 C1 3 1 3 0 6 C-0.66 6 -1.32 6 -2 6 C-1.67 6.99 -1.34 7.98 -1 9 C-3.97 11.475 -3.97 11.475 -7 14 C-7.33 13.34 -7.66 12.68 -8 12 C-5.36 8.04 -2.72 4.08 0 0 Z " fill="#B051E4" transform="translate(534,312)"/>
<path d="M0 0 C4.52615993 3.67832017 8.39424999 7.41086363 12 12 C9 12 9 12 6.51953125 9.8125 C5.62621094 8.884375 4.73289062 7.95625 3.8125 7 C2.91144531 6.071875 2.01039063 5.14375 1.08203125 4.1875 C0.39496094 3.465625 -0.29210937 2.74375 -1 2 C-0.67 1.34 -0.34 0.68 0 0 Z " fill="#080113" transform="translate(558,907)"/>
<path d="M0 0 C0.33 0 0.66 0 1 0 C0.41509121 6.14154225 -0.54066252 12.00679849 -2 18 C-2.66 18 -3.32 18 -4 18 C-3.48914188 11.56318772 -2.27057103 6.04057576 0 0 Z " fill="#5C18AB" transform="translate(974,718)"/>
<path d="M0 0 C0.66 0.33 1.32 0.66 2 1 C0.74151422 3.0087944 -0.53051046 5.00629298 -1.8125 7 C-2.87404297 8.670625 -2.87404297 8.670625 -3.95703125 10.375 C-4.63121094 11.24125 -5.30539062 12.1075 -6 13 C-6.99 13 -7.98 13 -9 13 C-7.8782037 11.2063257 -6.75245517 9.4151227 -5.625 7.625 C-4.99851562 6.62726563 -4.37203125 5.62953125 -3.7265625 4.6015625 C-2 2 -2 2 0 0 Z " fill="#BA58EF" transform="translate(617,194)"/>
<path d="M0 0 C0.99 0.33 1.98 0.66 3 1 C-0.28953744 4.68428193 -3.60132489 6.8406504 -8 9 C-8.99 8.67 -9.98 8.34 -11 8 C-9.23871656 6.63343543 -7.46563912 5.28205915 -5.6875 3.9375 C-4.70136719 3.18339844 -3.71523438 2.42929687 -2.69921875 1.65234375 C-1.80847656 1.10707031 -0.91773438 0.56179688 0 0 Z " fill="#8932E1" transform="translate(740,572)"/>
<path d="M0 0 C0.33 0 0.66 0 1 0 C1 4.95 1 9.9 1 15 C0.67 15 0.34 15 0 15 C-0.33 12.36 -0.66 9.72 -1 7 C-1.99 7 -2.98 7 -4 7 C-2.92598892 4.08482708 -2.22189824 2.22189824 0 0 Z " fill="#BE67F3" transform="translate(628,179)"/>
<path d="M0 0 C0.33 0.99 0.66 1.98 1 3 C-0.43359375 5.48046875 -0.43359375 5.48046875 -2.4375 8.1875 C-3.09621094 9.08855469 -3.75492188 9.98960937 -4.43359375 10.91796875 C-5.20896484 11.94857422 -5.20896484 11.94857422 -6 13 C-6.66 12.34 -7.32 11.68 -8 11 C-5.36 7.37 -2.72 3.74 0 0 Z " fill="#B957EE" transform="translate(593,228)"/>
<path d="M0 0 C1.96482034 2.94723051 2.7561217 5.11977826 3.6875 8.5 C3.95949219 9.4590625 4.23148438 10.418125 4.51171875 11.40625 C5 14 5 14 4 17 C1.16625922 11.33251843 0.36776168 6.30267439 0 0 Z " fill="#9236DF" transform="translate(237,548)"/>
<path d="M0 0 C1 3 1 3 0.00390625 5.26171875 C-0.47175781 6.06222656 -0.94742187 6.86273438 -1.4375 7.6875 C-2.14712891 8.89986328 -2.14712891 8.89986328 -2.87109375 10.13671875 C-3.24363281 10.75160156 -3.61617188 11.36648438 -4 12 C-4.99 11.34 -5.98 10.68 -7 10 C-3.535 5.05 -3.535 5.05 0 0 Z " fill="#A545DD" transform="translate(496,367)"/>
<path d="M0 0 C0.33 0.99 0.66 1.98 1 3 C-0.21484375 5.26171875 -0.21484375 5.26171875 -1.9375 7.6875 C-2.78634766 8.89986328 -2.78634766 8.89986328 -3.65234375 10.13671875 C-4.09707031 10.75160156 -4.54179688 11.36648438 -5 12 C-5.99 11.67 -6.98 11.34 -8 11 C-5.36 7.37 -2.72 3.74 0 0 Z " fill="#A54ADA" transform="translate(517,337)"/>
<path d="M0 0 C3.59854349 1.1995145 4.18616815 2.27925223 6.25 5.375 C7.06210937 6.56222656 7.06210937 6.56222656 7.890625 7.7734375 C9 10 9 10 8 13 C6.66388095 11.0226631 5.33100742 9.04327287 4 7.0625 C3.6184375 6.49853516 3.236875 5.93457031 2.84375 5.35351562 C0 1.11328125 0 1.11328125 0 0 Z " fill="#7025BA" transform="translate(733,320)"/>
<path d="M0 0 C0.99 0 1.98 0 3 0 C2.34 2.64 1.68 5.28 1 8 C-0.37562854 6.71034824 -1.70766393 5.37310707 -3 4 C-3 3.34 -3 2.68 -3 2 C-2.01 2 -1.02 2 0 2 C0 1.34 0 0.68 0 0 Z " fill="#480D93" transform="translate(921,907)"/>
<path d="M0 0 C0.33 0 0.66 0 1 0 C0.88490339 1.41750563 0.75746342 2.83401169 0.625 4.25 C0.55539062 5.03890625 0.48578125 5.8278125 0.4140625 6.640625 C-0.01507113 9.085877 -0.78600638 10.84836903 -2 13 C-3.18771723 9.57056481 -2.80226223 7.62215325 -1.5625 4.25 C-1.27503906 3.45078125 -0.98757813 2.6515625 -0.69140625 1.828125 C-0.46324219 1.22484375 -0.23507812 0.6215625 0 0 Z " fill="#661BB4" transform="translate(990,661)"/>
<path d="M0 0 C2.34914492 2.34914492 2.73140357 3.95679446 3.625 7.125 C3.88539063 8.03507813 4.14578125 8.94515625 4.4140625 9.8828125 C4.70410156 10.93082031 4.70410156 10.93082031 5 12 C4.01 12 3.02 12 2 12 C0.70756464 7.8803623 -0.26252625 4.33168317 0 0 Z " fill="#8B2CE8" transform="translate(262,637)"/>
<path d="M0 0 C1.32 0.33 2.64 0.66 4 1 C0.04 4.465 0.04 4.465 -4 8 C-4.66 7.34 -5.32 6.68 -6 6 C-5.09972412 4.96468274 -4.17906965 3.94705835 -3.25 2.9375 C-2.48429688 2.08478516 -2.48429688 2.08478516 -1.703125 1.21484375 C-1.14109375 0.81394531 -0.5790625 0.41304687 0 0 Z " fill="#8A2EDE" transform="translate(620,563)"/>
<path d="M0 0 C0.66 0.33 1.32 0.66 2 1 C-0.97 3.64 -3.94 6.28 -7 9 C-7.66 8.67 -8.32 8.34 -9 8 C-8.67 7.34 -8.34 6.68 -8 6 C-7.34 6 -6.68 6 -6 6 C-6 5.34 -6 4.68 -6 4 C-4.36368108 2.95107762 -2.69514137 1.95093297 -1 1 C-0.67 0.67 -0.34 0.34 0 0 Z " fill="#7821C8" transform="translate(773,438)"/>
<path d="M0 0 C0.99 0.33 1.98 0.66 3 1 C3.9765625 7.0546875 3.9765625 7.0546875 4 9 C3.34 9.66 2.68 10.32 2 11 C1.34 7.37 0.68 3.74 0 0 Z " fill="#6719C7" transform="translate(303,786)"/>
<path d="M0 0 C0.99 0.33 1.98 0.66 3 1 C4.25 7.625 4.25 7.625 2 11 C1.34 7.37 0.68 3.74 0 0 Z " fill="#6C1BC6" transform="translate(293,751)"/>
<path d="M0 0 C0.66 0.33 1.32 0.66 2 1 C0.46395304 4.14191424 -1.05731159 7.08596738 -3 10 C-3.66 10 -4.32 10 -5 10 C-3.66511872 6.40608886 -2.03977277 3.24509304 0 0 Z " fill="#450D97" transform="translate(819,743)"/>
<path d="M0 0 C4.79280002 0.80904103 6.13520113 3.25984591 9 7 C6 7 6 7 4.39453125 5.46875 C3.87246094 4.8190625 3.35039063 4.169375 2.8125 3.5 C2.28269531 2.8503125 1.75289062 2.200625 1.20703125 1.53125 C0.80871094 1.0259375 0.41039062 0.520625 0 0 Z " fill="#7825D6" transform="translate(771,709)"/>
<path d="M0 0 C0.33 0 0.66 0 1 0 C1 3.96 1 7.92 1 12 C-0.98120645 9.02819033 -1.65962579 7.48883564 -2 4 C-1.0625 1.6875 -1.0625 1.6875 0 0 Z " fill="#5F13BD" transform="translate(411,488)"/>
<path d="M0 0 C1.65 1.65 3.3 3.3 5 5 C4.34 6.32 3.68 7.64 3 9 C2.34 9 1.68 9 1 9 C0.67 6.03 0.34 3.06 0 0 Z " fill="#771EC7" transform="translate(795,412)"/>
<path d="M0 0 C0.66 0.33 1.32 0.66 2 1 C1.01 2.98 0.02 4.96 -1 7 C-1.66 7 -2.32 7 -3 7 C-3 7.66 -3 8.32 -3 9 C-3.99 8.67 -4.98 8.34 -6 8 C-4.02 5.36 -2.04 2.72 0 0 Z " fill="#AC4BDF" transform="translate(524,327)"/>
<path d="M0 0 C0.99 0.33 1.98 0.66 3 1 C-1.455 4.465 -1.455 4.465 -6 8 C-6 7.01 -6 6.02 -6 5 C-3.1875 2.25 -3.1875 2.25 0 0 Z " fill="#8D32E5" transform="translate(592,587)"/>
<path d="M0 0 C0.99 0.33 1.98 0.66 3 1 C0.36 2.98 -2.28 4.96 -5 7 C-4 3 -4 3 -2.125 1.1875 C-1.42375 0.795625 -0.7225 0.40375 0 0 Z " fill="#8C35E2" transform="translate(610,572)"/>
<path d="M0 0 C0.66 0.33 1.32 0.66 2 1 C-1.465 3.97 -1.465 3.97 -5 7 C-5.66 6.34 -6.32 5.68 -7 5 C-4.69 3.35 -2.38 1.7 0 0 Z " fill="#A246EB" transform="translate(1050,353)"/>
<path d="M0 0 C1.125 1.5625 1.125 1.5625 2 4 C1.125 7.75 1.125 7.75 0 11 C-0.33 11 -0.66 11 -1 11 C-1.02688151 9.35425434 -1.04634123 7.70838587 -1.0625 6.0625 C-1.07410156 5.14597656 -1.08570313 4.22945313 -1.09765625 3.28515625 C-1 1 -1 1 0 0 Z " fill="#6E23BF" transform="translate(1078,341)"/>
<path d="M0 0 C1.98 0.99 3.96 1.98 6 3 C4.79618552 5.49361571 3.54571278 7.68143083 2 10 C1.34 6.7 0.68 3.4 0 0 Z " fill="#902FD6" transform="translate(175,332)"/>
<path d="M0 0 C1.9451 2.91765 2.45276317 4.62537285 3 8 C2.01 8.66 1.02 9.32 0 10 C-1.125 2.25 -1.125 2.25 0 0 Z " fill="#5812B1" transform="translate(320,842)"/>
<path d="M0 0 C3.53586014 3.17320782 5.58578031 5.16743695 6 10 C3.25722422 6.80009492 1.3697164 3.99500618 0 0 Z " fill="#7224BE" transform="translate(756,353)"/>
<path d="M0 0 C3.42054006 1.14018002 4.2426201 1.92458518 6 5 C5.578125 7.13671875 5.578125 7.13671875 5 9 C4.16094435 7.87926138 3.32892169 6.75325453 2.5 5.625 C2.0359375 4.99851562 1.571875 4.37203125 1.09375 3.7265625 C0 2 0 2 0 0 Z " fill="#7323C1" transform="translate(764,366)"/>
<path d="M0 0 C3.59391114 1.33488128 6.75490696 2.96022723 10 5 C9.67 5.66 9.34 6.32 9 7 C5.46627288 5.03681826 2.75520215 2.95929119 0 0 Z " fill="#862FEA" transform="translate(200,349)"/>
<path d="M0 0 C0.33 0.66 0.66 1.32 1 2 C-0.3125 4.625 -0.3125 4.625 -2 7 C-2.66 7 -3.32 7 -4 7 C-4 7.66 -4 8.32 -4 9 C-4.66 8.67 -5.32 8.34 -6 8 C-4.02 5.36 -2.04 2.72 0 0 Z " fill="#B858ED" transform="translate(584,241)"/>
<path d="M0 0 C0.33 0.99 0.66 1.98 1 3 C-0.9375 5.6875 -0.9375 5.6875 -3 8 C-3.99 7.67 -4.98 7.34 -6 7 C-4.02 4.69 -2.04 2.38 0 0 Z " fill="#7121CB" transform="translate(704,903)"/>
<path d="M0 0 C3.36016893 1.12005631 4.69064913 2.37211797 7 5 C7 5.66 7 6.32 7 7 C3.63408134 5.55746343 1.48952921 3.66735273 -1 1 C-0.67 0.67 -0.34 0.34 0 0 Z " fill="#832EDD" transform="translate(717,654)"/>
<path d="M0 0 C0.33 0 0.66 0 1 0 C1.36923077 5.53846154 1.36923077 5.53846154 -0.5 7.875 C-1.2425 8.431875 -1.2425 8.431875 -2 9 C-1.125 1.125 -1.125 1.125 0 0 Z " fill="#6C1EBA" transform="translate(1006,603)"/>
<path d="M0 0 C2 1 2 1 2.6328125 2.84765625 C2.79523438 3.57855469 2.95765625 4.30945313 3.125 5.0625 C3.29257813 5.79597656 3.46015625 6.52945312 3.6328125 7.28515625 C3.75398437 7.85105469 3.87515625 8.41695313 4 9 C3.01 9.495 3.01 9.495 2 10 C0.68373308 6.38026598 0 3.90432869 0 0 Z " fill="#A842EE" transform="translate(206,439)"/>
<path d="M0 0 C3 1 3 1 4.75 3.375 C6 6 6 6 5 9 C4.16094435 7.87926138 3.32892169 6.75325453 2.5 5.625 C2.0359375 4.99851562 1.571875 4.37203125 1.09375 3.7265625 C0 2 0 2 0 0 Z " fill="#7826C9" transform="translate(780,390)"/>
</svg>
